<?xml version="1.0" standalone="no"?>
<!DOCTYPE svg PUBLIC "-//W3C//DTD SVG 20010904//EN"
 "http://www.w3.org/TR/2001/REC-SVG-20010904/DTD/svg10.dtd">
<svg version="1.0" xmlns="http://www.w3.org/2000/svg"
 width="3395.000000pt" height="1526.000000pt" viewBox="0 0 3395.000000 1526.000000"
 preserveAspectRatio="xMidYMid meet">
<metadata>
Created by potrace 1.16, written by Peter Selinger 2001-2019
</metadata>
<g transform="translate(0.000000,1526.000000) scale(0.100000,-0.100000)"
fill="#000000" stroke="none">
<path d="M8223 10941 c-9 -11 -20 -18 -24 -16 -4 3 -12 -2 -19 -10 -7 -8 -19
-15 -26 -15 -8 0 -14 -4 -14 -10 0 -5 -9 -10 -20 -10 -11 0 -20 -6 -20 -13 0
-7 -16 -19 -35 -27 -19 -8 -35 -17 -35 -22 0 -4 -11 -8 -25 -8 -22 0 -25 -4
-25 -34 0 -21 6 -36 16 -40 8 -3 12 -10 9 -16 -3 -5 1 -10 9 -10 9 0 16 -9 16
-20 0 -11 5 -20 10 -20 6 0 10 -7 10 -15 0 -8 4 -15 9 -15 5 0 13 -10 17 -22
3 -12 15 -31 25 -42 11 -11 19 -28 19 -38 0 -10 7 -18 15 -18 8 0 15 -9 15
-20 0 -11 5 -20 10 -20 6 0 10 -5 10 -10 0 -6 9 -21 21 -33 l20 -22 -220 -3
-221 -2 0 -180 0 -180 225 0 224 0 -24 -25 c-13 -14 -31 -41 -40 -60 -9 -19
-20 -35 -25 -35 -6 0 -10 -9 -10 -20 0 -11 -4 -20 -10 -20 -5 0 -10 -5 -10
-11 0 -6 -6 -17 -12 -24 -30 -33 -38 -45 -38 -55 0 -5 -4 -10 -10 -10 -5 0
-10 -9 -10 -20 0 -11 -7 -20 -16 -20 -8 0 -12 -5 -9 -10 3 -6 -1 -13 -9 -16
-10 -4 -16 -19 -16 -40 0 -30 3 -34 25 -34 14 0 25 -4 25 -9 0 -5 9 -11 21
-14 12 -3 18 -10 14 -16 -3 -7 2 -11 14 -11 12 0 21 -4 21 -10 0 -5 9 -10 20
-10 11 0 20 -4 20 -9 0 -5 9 -11 21 -14 12 -3 18 -10 14 -16 -4 -7 4 -11 19
-11 14 0 26 -3 26 -7 0 -5 11 -13 24 -19 21 -10 28 -8 45 12 12 13 21 29 21
34 0 6 5 10 10 10 6 0 10 7 10 15 0 9 11 28 25 43 14 15 25 33 25 40 0 12 7
23 38 57 6 7 12 18 12 24 0 6 5 11 10 11 6 0 10 9 10 20 0 11 5 20 10 20 6 0
10 7 10 15 0 8 7 15 15 15 8 0 15 9 15 20 0 11 5 20 10 20 6 0 10 7 10 15 0 8
7 15 15 15 8 0 15 -7 15 -15 0 -8 5 -15 10 -15 6 0 10 -9 10 -19 0 -10 7 -22
16 -25 8 -3 12 -10 9 -16 -3 -5 1 -10 9 -10 9 0 16 -9 16 -20 0 -11 5 -20 10
-20 6 0 10 -7 10 -15 0 -8 5 -15 10 -15 6 0 10 -7 10 -15 0 -9 7 -18 15 -21 8
-4 15 -12 15 -20 0 -8 5 -14 10 -14 6 0 10 -9 10 -20 0 -11 7 -23 15 -26 8 -3
20 -21 27 -40 6 -19 15 -34 19 -34 4 0 11 -9 14 -21 5 -15 10 -18 18 -10 6 6
22 11 35 11 13 0 20 4 17 10 -4 6 5 10 20 10 16 0 24 4 20 11 -4 6 2 13 14 16
12 3 21 9 21 14 0 5 9 9 20 9 11 0 20 5 20 10 0 6 9 10 21 10 12 0 17 4 14 11
-4 6 2 13 14 16 12 3 21 9 21 14 0 5 11 9 25 9 22 0 25 4 25 35 0 24 -5 35
-15 35 -8 0 -15 7 -15 15 0 8 -4 15 -10 15 -5 0 -10 9 -10 20 0 11 -4 20 -10
20 -5 0 -10 5 -10 10 0 10 -8 22 -37 55 -7 7 -13 23 -13 34 0 12 -5 21 -11 21
-16 0 -38 31 -39 53 0 9 -4 17 -10 17 -5 0 -10 5 -10 10 0 6 -9 21 -21 33
l-20 22 220 3 221 2 0 180 0 180 -221 2 -220 3 20 22 c12 12 21 27 21 33 0 5
5 10 10 10 6 0 10 9 10 20 0 11 7 20 16 20 8 0 12 5 9 10 -3 6 1 13 9 16 9 3
16 15 16 25 0 10 4 19 9 19 5 0 11 8 15 18 6 20 25 50 43 70 7 7 16 24 19 38
3 13 12 24 20 24 9 0 14 12 14 35 0 31 -3 35 -25 35 -14 0 -25 4 -25 8 0 5
-16 14 -35 22 -19 8 -35 20 -35 27 0 7 -9 13 -20 13 -11 0 -20 3 -20 8 0 4
-18 16 -40 26 -22 10 -37 22 -35 26 5 8 -29 20 -57 20 -10 0 -18 -7 -18 -15 0
-15 -6 -25 -37 -59 -7 -8 -9 -16 -6 -20 3 -3 -2 -8 -11 -12 -9 -3 -16 -15 -16
-25 0 -10 -4 -19 -10 -19 -5 0 -10 -5 -10 -11 0 -6 -6 -17 -12 -24 -30 -33
-38 -45 -38 -55 0 -5 -4 -10 -10 -10 -5 0 -10 -7 -10 -15 0 -9 -11 -28 -25
-43 -14 -15 -25 -33 -25 -40 0 -7 -8 -22 -18 -32 -18 -19 -18 -19 -35 0 -9 11
-17 29 -17 40 0 11 -7 20 -15 20 -8 0 -15 7 -15 15 0 8 -4 15 -10 15 -5 0 -10
9 -10 20 0 11 -4 20 -10 20 -5 0 -10 5 -10 11 0 6 -6 17 -12 24 -29 32 -36 42
-42 62 -4 11 -15 28 -26 38 -11 10 -20 25 -20 34 0 9 -9 23 -20 31 -11 8 -20
22 -20 32 0 25 -45 24 -67 -1z"/>
<path d="M6265 10940 l40 -7 -35 -3 c-19 -1 -134 -6 -255 -11 -121 -5 -275
-12 -342 -15 -68 -3 -123 -9 -123 -15 0 -5 -44 -9 -101 -9 -56 0 -98 -4 -95
-9 9 -14 -21 -21 -94 -21 -38 0 -72 -4 -75 -10 -3 -5 -35 -10 -71 -10 -36 0
-64 -4 -64 -10 0 -6 -30 -10 -70 -10 -51 0 -69 -3 -67 -12 1 -9 -16 -14 -53
-16 -30 -2 -59 -7 -65 -13 -5 -5 -31 -9 -57 -9 -26 0 -48 -4 -48 -10 0 -5 -24
-10 -54 -10 -39 0 -55 -4 -60 -15 -3 -10 -19 -15 -46 -15 -22 0 -40 -4 -40
-10 0 -5 -22 -10 -50 -10 -27 0 -50 -4 -50 -10 0 -5 -18 -10 -39 -10 -25 0
-41 -5 -45 -15 -3 -10 -19 -15 -46 -15 -22 0 -40 -4 -40 -10 0 -5 -18 -10 -41
-10 -22 0 -38 -4 -35 -9 7 -11 -17 -21 -49 -21 -13 0 -27 -4 -30 -10 -3 -5
-22 -10 -41 -10 -19 0 -34 -4 -34 -10 0 -5 -16 -10 -36 -10 -20 0 -33 -4 -29
-10 3 -5 -7 -12 -22 -15 -15 -4 -36 -10 -45 -16 -10 -5 -29 -9 -43 -9 -14 0
-25 -4 -25 -10 0 -5 -16 -10 -35 -10 -22 0 -34 -4 -33 -12 2 -7 -8 -14 -22
-16 -14 -2 -29 -8 -34 -13 -6 -5 -23 -9 -38 -9 -15 0 -28 -4 -28 -10 0 -5 -14
-10 -30 -10 -19 0 -29 -5 -28 -12 2 -8 -9 -14 -24 -16 -16 -2 -28 -8 -28 -13
0 -5 -14 -9 -31 -9 -17 0 -28 -4 -24 -10 4 -6 -5 -10 -20 -10 -14 0 -28 -7
-31 -15 -4 -8 -17 -15 -30 -15 -13 0 -24 -4 -24 -10 0 -5 -13 -10 -30 -10
l-30 0 0 -270 0 -270 24 0 c14 0 28 5 31 10 3 6 15 10 26 10 10 0 19 5 19 10
0 6 11 10 25 10 14 0 25 4 25 9 0 12 58 41 82 41 11 0 16 5 13 10 -4 6 7 10
24 10 21 0 31 5 31 15 0 9 9 15 25 15 14 0 25 5 25 10 0 6 14 10 31 10 17 0
28 4 24 10 -4 6 6 10 23 10 17 0 32 6 36 15 3 8 17 15 31 15 14 0 25 5 25 10
0 6 12 10 26 10 14 0 32 7 40 15 9 8 24 15 34 15 10 0 22 5 25 10 3 6 19 10
36 10 16 0 29 5 29 10 0 6 16 10 36 10 20 0 33 4 29 10 -3 5 7 12 22 15 15 4
36 10 45 16 10 5 29 9 43 9 14 0 25 5 25 10 0 6 20 10 45 10 31 0 44 4 43 13
-2 7 11 13 35 15 20 2 37 7 37 13 0 5 18 9 40 9 22 0 40 5 40 10 0 6 20 10 44
10 30 0 46 5 50 15 3 10 19 15 46 15 22 0 40 5 40 10 0 6 23 10 50 10 28 0 50
5 50 10 0 6 22 10 49 10 34 0 51 4 55 15 4 11 20 15 55 15 27 0 53 5 56 10 3
6 33 10 66 10 33 0 58 4 55 9 -8 12 29 21 86 21 26 0 50 5 53 10 3 6 37 10 76
10 39 0 69 4 69 10 0 6 39 10 96 10 53 0 93 4 90 9 -10 15 22 21 119 21 52 0
97 4 100 10 4 6 68 10 161 10 96 0 154 4 154 10 0 7 148 10 425 10 262 0 425
-4 425 -10 0 -5 68 -11 158 -14 127 -4 377 -20 390 -25 2 0 0 -5 -3 -11 -4 -6
10 -10 34 -10 l41 0 0 250 0 250 -65 0 c-36 0 -65 4 -65 9 0 6 -55 12 -122 15
-255 11 -545 24 -598 27 l-55 2 55 7 c30 4 -55 7 -190 7 -135 0 -227 -3 -205
-7z"/>
<path d="M5580 9920 c-8 -5 -52 -10 -97 -10 -49 0 -83 -4 -83 -10 0 -6 -26
-10 -59 -10 -43 0 -60 -4 -65 -15 -3 -10 -19 -15 -45 -15 -22 0 -43 -4 -46
-10 -3 -5 -24 -10 -46 -10 -21 0 -39 -4 -39 -10 0 -5 -18 -10 -39 -10 -25 0
-41 -5 -45 -15 -3 -9 -18 -15 -36 -15 -16 0 -30 -4 -30 -10 0 -5 -16 -10 -35
-10 -19 0 -35 -4 -35 -10 0 -5 -16 -10 -35 -10 -23 0 -34 -4 -33 -12 2 -8 -10
-14 -29 -16 -18 -2 -33 -7 -33 -13 0 -5 -13 -9 -30 -9 -16 0 -30 -4 -30 -10 0
-5 -8 -10 -19 -10 -10 0 -24 -7 -31 -15 -7 -8 -23 -15 -36 -15 -13 0 -24 -4
-24 -10 0 -5 -13 -10 -29 -10 -16 0 -31 -6 -35 -15 -3 -8 -14 -15 -25 -15 -11
0 -23 -4 -26 -10 -3 -5 -17 -10 -31 -10 -13 0 -24 -4 -24 -10 0 -5 -13 -10
-30 -10 -18 0 -29 -5 -27 -12 1 -7 -8 -14 -20 -16 -13 -2 -23 -8 -23 -13 0 -5
-11 -9 -25 -9 -14 0 -25 -4 -25 -10 0 -5 -11 -10 -25 -10 -16 0 -25 -6 -25
-15 0 -8 -9 -15 -20 -15 -11 0 -20 -4 -20 -10 0 -5 -9 -10 -20 -10 -11 0 -20
-4 -20 -10 0 -5 -9 -10 -19 -10 -10 0 -21 -7 -25 -15 -3 -8 -12 -15 -21 -15
-8 0 -15 -4 -15 -10 0 -5 -9 -10 -21 -10 -11 0 -18 -4 -14 -9 3 -5 -4 -12 -15
-16 -11 -3 -20 -11 -20 -16 0 -5 -7 -9 -15 -9 -8 0 -15 -4 -15 -10 0 -5 -4
-10 -10 -10 -9 0 -42 -25 -76 -57 -7 -7 -17 -13 -23 -13 -6 0 -10 -4 -9 -8 4
-10 -48 -62 -62 -62 -5 0 -10 -5 -10 -10 0 -6 -17 -28 -37 -49 -44 -45 -62
-67 -66 -78 -1 -5 -6 -7 -10 -5 -5 1 -6 -2 -2 -8 3 -5 -1 -13 -9 -16 -8 -3
-21 -21 -28 -40 -6 -19 -18 -34 -25 -34 -7 0 -13 -9 -13 -20 0 -11 -4 -20 -10
-20 -5 0 -10 -5 -10 -11 0 -6 -7 -17 -15 -26 -8 -8 -13 -19 -9 -24 3 -5 -2
-12 -10 -15 -9 -3 -16 -15 -16 -25 0 -10 -4 -19 -10 -19 -5 0 -10 -11 -10 -24
0 -13 -7 -27 -16 -30 -9 -4 -14 -13 -10 -21 3 -9 -1 -18 -9 -21 -9 -4 -15 -19
-15 -40 0 -19 -4 -34 -10 -34 -5 0 -10 -11 -10 -25 0 -16 -6 -25 -15 -25 -10
0 -15 -11 -15 -35 0 -19 -4 -35 -9 -35 -5 0 -11 -17 -15 -37 -15 -99 -19 -119
-32 -126 -9 -5 -14 -25 -14 -52 0 -24 -4 -47 -10 -50 -5 -3 -10 -30 -10 -60 0
-30 -4 -57 -10 -60 -5 -3 -10 -35 -10 -70 0 -47 -4 -68 -17 -81 -17 -16 -18
-78 -18 -1006 0 -840 2 -990 14 -997 8 -6 16 -32 19 -65 2 -31 8 -56 13 -56 5
0 9 -20 9 -44 0 -25 5 -48 10 -51 6 -3 10 -26 10 -51 0 -32 4 -44 15 -44 10 0
15 -11 15 -35 0 -19 5 -35 10 -35 6 0 10 -16 10 -35 0 -19 5 -35 10 -35 6 0
10 -16 10 -35 0 -24 5 -35 15 -35 9 0 15 -9 15 -25 0 -14 5 -25 10 -25 6 0 10
-16 10 -35 0 -19 5 -35 10 -35 6 0 10 -9 10 -20 0 -11 7 -23 15 -26 8 -4 15
-15 15 -25 0 -10 5 -19 10 -19 6 0 10 -11 10 -25 0 -14 4 -25 9 -25 5 0 12
-11 15 -25 4 -14 11 -25 16 -25 6 0 10 -11 10 -25 0 -14 5 -25 10 -25 6 0 10
-9 10 -20 0 -11 7 -20 15 -20 9 0 15 -9 15 -23 0 -12 9 -29 20 -37 11 -8 20
-25 20 -37 0 -14 6 -23 15 -23 13 0 17 -11 14 -36 0 -3 9 -14 20 -23 12 -10
21 -23 21 -29 0 -6 11 -22 25 -36 14 -14 25 -30 25 -35 0 -6 11 -21 25 -35 14
-14 25 -30 25 -36 0 -5 5 -10 10 -10 6 0 10 -9 10 -20 0 -11 7 -20 15 -20 8 0
15 -6 15 -13 0 -7 9 -19 20 -27 11 -8 20 -20 20 -27 0 -7 16 -28 35 -47 19
-20 35 -40 35 -46 0 -5 7 -10 15 -10 8 0 15 -7 15 -15 0 -8 5 -15 12 -15 6 0
8 -3 5 -6 -3 -4 7 -19 23 -34 17 -16 30 -31 30 -35 0 -8 27 -35 35 -35 8 0 35
-27 35 -35 0 -10 28 -35 39 -35 6 0 11 -4 11 -9 0 -12 119 -131 131 -131 5 0
9 -5 9 -11 0 -11 25 -39 35 -39 10 0 35 -28 35 -39 0 -6 7 -11 15 -11 8 0 15
-3 15 -7 0 -5 13 -17 29 -28 16 -10 27 -23 25 -27 -3 -4 2 -8 11 -8 9 0 33
-17 55 -38 57 -55 91 -82 101 -82 5 0 9 -4 9 -8 0 -4 14 -16 30 -26 17 -9 28
-22 25 -27 -4 -5 3 -9 14 -9 12 0 21 -4 21 -10 0 -5 5 -10 11 -10 7 0 22 -11
35 -25 13 -14 28 -25 34 -25 5 0 10 -4 10 -10 0 -5 6 -10 14 -10 7 0 25 -11
40 -25 15 -14 31 -25 37 -25 5 0 9 -4 9 -10 0 -5 6 -10 14 -10 7 0 25 -11 40
-25 15 -14 34 -25 42 -25 7 0 14 -4 14 -10 0 -5 6 -10 14 -10 8 0 16 -7 20
-15 3 -8 12 -15 21 -15 8 0 15 -3 15 -8 0 -4 18 -15 40 -25 23 -9 38 -22 35
-27 -3 -6 3 -10 14 -10 12 0 21 -4 21 -10 0 -5 9 -10 20 -10 11 0 20 -4 20
-10 0 -5 7 -10 15 -10 9 0 18 -7 21 -15 4 -8 15 -15 25 -15 10 0 19 -4 19 -10
0 -5 9 -10 20 -10 11 0 20 -4 20 -10 0 -5 7 -10 15 -10 9 0 18 -7 21 -15 4 -8
17 -15 30 -15 13 0 24 -3 24 -8 0 -4 18 -15 40 -25 22 -9 40 -21 40 -27 0 -5
9 -10 19 -10 11 0 23 -4 26 -10 3 -5 15 -10 26 -10 10 0 19 -7 19 -15 0 -9 9
-15 25 -15 14 0 25 -4 25 -10 0 -5 9 -10 20 -10 11 0 20 -4 20 -10 0 -5 11
-10 25 -10 16 0 25 -6 25 -15 0 -9 9 -15 25 -15 14 0 25 -4 25 -10 0 -5 11
-10 25 -10 14 0 25 -4 25 -9 0 -5 10 -11 23 -13 12 -2 21 -9 19 -16 -1 -7 10
-12 28 -12 16 0 30 -4 30 -10 0 -5 11 -10 25 -10 14 0 25 -4 25 -9 0 -5 12
-11 28 -13 15 -2 26 -8 24 -15 -1 -8 9 -13 28 -13 16 0 30 -4 30 -10 0 -5 11
-10 24 -10 14 0 28 -5 31 -10 3 -5 15 -10 25 -10 10 0 23 -8 29 -17 14 -26
188 -26 202 0 6 9 19 17 29 17 10 0 22 5 25 10 3 6 17 10 31 10 13 0 24 5 24
10 0 6 11 10 24 10 13 0 26 7 30 15 3 8 15 15 26 15 11 0 20 5 20 10 0 6 11
10 25 10 14 0 25 5 25 10 0 6 11 10 24 10 13 0 26 7 30 15 3 8 15 15 26 15 11
0 20 5 20 10 0 6 11 10 25 10 14 0 25 5 25 10 0 6 11 10 25 10 14 0 24 5 23
12 -2 7 7 14 20 16 12 2 22 8 22 13 0 5 11 9 25 9 14 0 25 5 25 10 0 6 9 10
20 10 11 0 20 4 20 9 0 11 56 41 75 41 7 0 15 7 19 15 3 8 12 15 21 15 8 0 15
5 15 10 0 6 9 10 20 10 11 0 20 5 20 10 0 6 12 10 26 10 14 0 23 4 19 9 -6 10
49 41 72 41 7 0 13 5 13 10 0 6 9 10 21 10 11 0 17 4 14 10 -3 5 12 18 35 27
22 10 40 21 40 25 0 5 9 8 19 8 10 0 21 7 25 15 3 8 12 15 21 15 8 0 15 5 15
10 0 6 10 10 22 10 12 0 18 3 15 7 -7 6 23 27 56 39 9 3 17 10 17 15 0 5 5 9
10 9 6 0 23 11 38 25 15 14 32 25 39 25 7 0 13 5 13 10 0 6 9 10 20 10 11 0
19 5 17 10 -1 6 12 18 28 28 17 9 32 20 33 25 2 4 10 7 18 7 8 0 14 7 14 15 0
8 7 15 15 15 8 0 15 5 15 10 0 6 7 10 15 10 8 0 15 5 15 10 0 6 5 10 10 10 6
0 21 11 34 25 13 14 26 25 30 25 6 0 43 30 72 57 7 7 17 13 23 13 6 0 11 5 11
11 0 14 25 39 39 39 6 0 11 5 11 10 0 6 7 10 16 10 8 0 13 4 10 8 -6 9 29 42
44 42 6 0 10 5 10 10 0 6 7 10 16 10 8 0 13 4 10 8 -5 8 28 42 40 42 10 0 34
28 34 39 0 6 4 11 8 11 11 0 42 29 67 63 11 15 26 27 33 27 7 0 11 4 8 9 -3 4
24 39 59 76 36 37 65 69 65 72 0 2 11 15 25 29 14 14 25 28 25 33 0 4 18 28
40 52 58 64 61 69 54 69 -4 0 7 13 24 30 17 16 34 41 38 55 3 14 11 25 16 25
15 0 38 27 38 45 0 9 11 27 25 41 14 14 25 31 25 39 0 8 5 15 10 15 6 0 10 6
10 14 0 8 7 16 15 20 8 3 15 12 15 21 0 8 3 15 8 15 10 0 32 51 26 61 -7 12
-54 11 -54 -1 0 -5 -7 -10 -15 -10 -8 0 -15 -4 -15 -10 0 -5 -9 -10 -19 -10
-10 0 -21 -7 -25 -15 -3 -8 -12 -15 -21 -15 -8 0 -15 -4 -15 -10 0 -5 -9 -10
-20 -10 -11 0 -20 -4 -20 -8 0 -5 -18 -17 -40 -28 -22 -10 -40 -22 -40 -26 0
-5 -7 -8 -16 -8 -8 0 -22 -6 -29 -12 -35 -32 -45 -38 -60 -38 -8 0 -15 -4 -15
-10 0 -5 -9 -10 -20 -10 -11 0 -20 -7 -20 -15 0 -8 -9 -15 -20 -15 -11 0 -20
-4 -20 -10 0 -5 -9 -10 -21 -10 -11 0 -17 -5 -14 -10 3 -6 -3 -10 -13 -10 -11
0 -22 -7 -26 -15 -3 -8 -12 -15 -21 -15 -8 0 -15 -4 -15 -10 0 -5 -9 -10 -20
-10 -11 0 -20 -4 -20 -10 0 -5 -9 -10 -20 -10 -11 0 -20 -7 -20 -15 0 -8 -9
-15 -20 -15 -11 0 -20 -4 -20 -10 0 -5 -5 -10 -11 -10 -6 0 -17 -6 -24 -12
-35 -32 -45 -38 -60 -38 -8 0 -15 -4 -15 -10 0 -5 -9 -10 -21 -10 -11 0 -17
-4 -14 -10 3 -5 -12 -18 -35 -27 -22 -10 -40 -21 -40 -25 0 -5 -7 -8 -14 -8
-8 0 -27 -11 -42 -25 -15 -14 -33 -25 -40 -25 -8 0 -14 -4 -14 -10 0 -5 -9
-10 -19 -10 -10 0 -21 -7 -25 -15 -3 -8 -12 -15 -21 -15 -8 0 -15 -4 -15 -10
0 -5 -9 -10 -21 -10 -11 0 -17 -4 -14 -10 3 -5 -3 -10 -14 -10 -12 0 -21 -7
-21 -15 0 -8 -9 -15 -20 -15 -11 0 -20 -4 -20 -10 0 -5 -7 -10 -14 -10 -8 0
-27 -11 -42 -25 -15 -14 -33 -25 -40 -25 -8 0 -14 -4 -14 -10 0 -5 -9 -10 -19
-10 -10 0 -21 -7 -25 -15 -3 -8 -12 -15 -21 -15 -8 0 -15 -4 -15 -10 0 -5 -7
-10 -15 -10 -8 0 -15 -4 -15 -10 0 -5 -9 -10 -19 -10 -10 0 -21 -7 -25 -15 -3
-8 -12 -15 -21 -15 -8 0 -15 -4 -15 -10 0 -5 -9 -10 -20 -10 -11 0 -20 -4 -20
-10 0 -5 -9 -10 -21 -10 -12 0 -17 -4 -14 -11 4 -6 -2 -13 -14 -16 -12 -3 -21
-9 -21 -14 0 -5 -9 -9 -20 -9 -11 0 -20 -4 -20 -10 0 -5 -7 -10 -14 -10 -8 0
-27 -11 -42 -25 -15 -14 -36 -25 -46 -25 -11 0 -16 -4 -13 -10 3 -5 -12 -18
-35 -27 -22 -10 -40 -21 -40 -25 0 -5 -9 -8 -19 -8 -10 0 -21 -7 -25 -15 -3
-8 -12 -15 -21 -15 -8 0 -15 -4 -15 -10 0 -5 -9 -10 -20 -10 -11 0 -20 -4 -20
-10 0 -5 -7 -10 -14 -10 -8 0 -27 -11 -42 -25 -15 -14 -36 -25 -46 -25 -11 0
-16 -4 -13 -10 4 -6 -5 -10 -20 -10 -16 0 -24 -4 -20 -11 4 -6 -2 -13 -14 -16
-12 -3 -21 -9 -21 -14 0 -5 -12 -9 -26 -9 -14 0 -23 -4 -19 -10 4 -6 -5 -10
-19 -10 -15 0 -25 -5 -23 -12 1 -7 -8 -14 -20 -16 -13 -2 -23 -8 -23 -13 0 -5
-7 -9 -16 -9 -8 0 -22 -6 -29 -12 -35 -32 -45 -38 -60 -38 -8 0 -15 -4 -15
-10 0 -5 -8 -10 -17 -10 -11 0 -14 3 -7 8 6 4 14 20 18 35 4 15 10 25 15 23 5
-3 9 6 9 21 0 15 5 29 11 31 6 2 11 12 11 23 0 10 5 19 10 19 6 0 10 11 10 25
0 14 6 25 13 25 7 0 13 9 14 21 1 11 11 29 22 39 12 9 21 25 21 34 0 19 23 46
39 46 6 0 11 9 11 20 0 12 10 31 23 44 40 42 77 86 71 86 -3 0 24 29 60 65 36
36 70 65 76 65 6 0 9 4 6 8 -6 10 29 42 45 42 5 0 7 5 4 10 -3 6 -1 10 4 10 6
0 20 8 30 18 73 66 92 82 101 82 5 0 10 5 10 10 0 6 9 10 21 10 12 0 17 4 14
11 -4 6 2 13 14 16 12 3 21 9 21 14 0 5 7 9 15 9 8 0 15 5 15 10 0 6 9 10 21
10 12 0 17 4 14 11 -4 6 2 13 14 16 12 3 21 9 21 14 0 5 9 9 21 9 11 0 17 5
14 10 -4 6 5 10 20 10 16 0 24 4 20 11 -4 6 2 13 14 16 12 3 21 9 21 14 0 5 7
9 14 9 8 0 27 11 42 25 15 14 35 25 45 25 11 0 19 5 19 10 0 6 9 10 19 10 10
0 21 7 25 15 3 8 12 15 21 15 8 0 15 5 15 10 0 6 9 10 20 10 11 0 20 5 20 10
0 6 9 10 20 10 11 0 20 4 20 9 0 11 56 41 77 41 7 0 13 5 13 10 0 6 11 10 25
10 14 0 24 5 22 12 -1 7 8 14 21 16 12 2 22 8 22 13 0 5 9 9 20 9 11 0 20 5
20 10 0 6 11 10 25 10 14 0 24 5 22 12 -1 7 8 14 21 16 12 2 22 8 22 13 0 5
11 9 25 9 14 0 25 3 25 8 0 10 58 42 76 42 8 0 14 5 14 10 0 6 11 10 25 10 14
0 25 4 25 9 0 11 56 41 77 41 7 0 13 5 13 10 0 6 11 10 25 10 14 0 25 4 25 9
0 11 56 41 77 41 7 0 13 5 13 10 0 6 13 10 30 10 18 0 29 5 27 12 -1 7 8 14
21 16 12 2 22 8 22 13 0 5 11 9 25 9 14 0 25 5 25 10 0 6 11 10 25 10 14 0 24
5 22 12 -1 7 8 14 21 16 12 2 22 8 22 13 0 5 11 9 25 9 14 0 25 4 25 10 0 5
11 12 25 16 14 3 25 10 25 15 0 5 11 9 25 9 14 0 25 5 25 10 0 6 12 10 27 10
14 0 23 3 19 7 -7 8 59 43 81 43 7 0 13 5 13 10 0 6 11 10 24 10 13 0 26 7 30
15 3 8 15 15 26 15 11 0 20 5 20 10 0 6 11 10 25 10 14 0 25 5 25 10 0 6 11
10 25 10 15 0 24 5 22 13 -1 7 10 13 26 15 19 2 27 9 27 22 0 10 4 21 9 24 4
3 11 19 15 36 3 18 10 29 16 25 6 -4 10 6 10 24 0 17 5 31 10 31 6 0 10 16 10
35 0 19 5 35 10 35 6 0 10 11 10 24 0 14 7 31 15 40 8 8 15 32 15 55 0 23 5
41 10 41 6 0 10 28 10 65 0 58 -2 65 -20 65 -11 0 -20 -7 -20 -15 0 -8 -9 -15
-19 -15 -11 0 -23 -4 -26 -10 -3 -5 -17 -10 -31 -10 -13 0 -24 -4 -24 -10 0
-5 -9 -10 -20 -10 -11 0 -23 -7 -26 -15 -4 -8 -17 -15 -30 -15 -13 0 -24 -4
-24 -10 0 -5 -14 -10 -31 -10 -18 0 -28 -4 -24 -10 4 -6 -7 -13 -24 -16 -17
-4 -31 -10 -31 -15 0 -5 -11 -9 -25 -9 -14 0 -25 -4 -25 -10 0 -5 -11 -10 -24
-10 -13 0 -26 -7 -30 -15 -3 -8 -14 -15 -25 -15 -11 0 -23 -4 -26 -10 -3 -5
-17 -10 -31 -10 -13 0 -24 -4 -24 -10 0 -5 -11 -10 -25 -10 -16 0 -25 -6 -25
-15 0 -9 -9 -15 -25 -15 -14 0 -25 -4 -25 -10 0 -5 -11 -10 -25 -10 -14 0 -25
-4 -25 -10 0 -5 -13 -10 -30 -10 -19 0 -29 -5 -27 -12 1 -8 -10 -14 -25 -16
-16 -2 -28 -8 -28 -13 0 -5 -11 -9 -25 -9 -14 0 -25 -4 -25 -10 0 -5 -8 -10
-19 -10 -10 0 -24 -7 -31 -15 -7 -8 -21 -15 -31 -15 -10 0 -21 -4 -24 -10 -3
-5 -17 -10 -30 -10 -12 0 -25 -7 -29 -15 -3 -8 -15 -15 -26 -15 -11 0 -20 -4
-20 -10 0 -5 -11 -10 -25 -10 -14 0 -25 -4 -25 -10 0 -5 -11 -10 -24 -10 -13
0 -26 -7 -30 -15 -3 -8 -14 -15 -25 -15 -11 0 -23 -4 -26 -10 -3 -5 -15 -10
-26 -10 -10 0 -19 -4 -19 -10 0 -5 -13 -10 -30 -10 -18 0 -29 -5 -27 -12 1 -7
-8 -14 -20 -16 -13 -2 -23 -8 -23 -13 0 -5 -11 -9 -25 -9 -14 0 -25 -4 -25
-10 0 -5 -11 -10 -25 -10 -16 0 -25 -6 -25 -15 0 -9 -9 -15 -25 -15 -14 0 -25
-4 -25 -10 0 -5 -12 -10 -27 -10 -14 0 -23 -3 -19 -7 7 -8 -59 -43 -81 -43 -7
0 -13 -4 -13 -10 0 -5 -11 -10 -25 -10 -14 0 -24 -5 -22 -12 1 -7 -8 -14 -20
-16 -13 -2 -23 -8 -23 -13 0 -5 -11 -9 -25 -9 -14 0 -25 -4 -25 -10 0 -5 -9
-10 -19 -10 -10 0 -21 -7 -25 -15 -3 -8 -12 -15 -21 -15 -8 0 -15 -4 -15 -10
0 -5 -9 -10 -20 -10 -11 0 -20 -4 -20 -10 0 -5 -11 -10 -25 -10 -16 0 -25 -6
-25 -15 0 -8 -9 -15 -20 -15 -11 0 -20 -4 -20 -10 0 -5 -9 -10 -20 -10 -11 0
-20 -4 -20 -10 0 -5 -9 -10 -20 -10 -11 0 -20 -7 -20 -15 0 -8 -9 -15 -20 -15
-11 0 -20 -4 -20 -10 0 -5 -5 -10 -11 -10 -6 0 -17 -6 -24 -13 -35 -31 -45
-37 -60 -37 -8 0 -15 -4 -15 -10 0 -5 -4 -10 -9 -10 -6 0 -22 -11 -37 -25 -15
-14 -33 -25 -40 -25 -8 0 -14 -4 -14 -10 0 -5 -6 -10 -14 -10 -8 0 -16 -7 -20
-15 -3 -8 -12 -15 -21 -15 -8 0 -15 -4 -15 -10 0 -5 -7 -10 -15 -10 -8 0 -15
-4 -15 -10 0 -5 -7 -10 -16 -10 -8 0 -12 -5 -9 -11 4 -6 -2 -13 -14 -16 -12
-3 -21 -9 -21 -14 0 -5 -7 -9 -15 -9 -8 0 -15 -4 -15 -10 0 -5 -7 -10 -16 -10
-8 0 -13 -4 -10 -8 5 -8 -28 -42 -40 -42 -3 0 -20 -16 -38 -35 -19 -19 -36
-35 -40 -35 -9 0 -83 -77 -126 -129 -19 -24 -59 -68 -87 -98 -29 -30 -53 -60
-53 -67 0 -6 -9 -18 -20 -26 -11 -8 -20 -18 -20 -23 0 -5 -6 -15 -12 -22 -30
-33 -38 -45 -38 -55 0 -5 -4 -10 -10 -10 -5 0 -10 -9 -10 -20 0 -11 -4 -20 -9
-20 -5 0 -13 -10 -17 -22 -3 -12 -15 -31 -25 -42 -11 -11 -19 -28 -19 -38 0
-10 -7 -18 -15 -18 -9 0 -15 -9 -15 -25 0 -14 -4 -25 -10 -25 -5 0 -10 -9 -10
-21 0 -11 -6 -27 -12 -34 -32 -36 -38 -46 -38 -65 0 -11 -4 -20 -10 -20 -5 0
-10 -11 -10 -24 0 -13 -7 -26 -15 -30 -9 -3 -15 -18 -15 -36 0 -16 -4 -30 -10
-30 -5 0 -10 -11 -10 -25 0 -27 -17 -34 -26 -10 -4 8 -17 15 -30 15 -13 0 -24
5 -24 10 0 6 -9 10 -20 10 -11 0 -23 7 -26 15 -4 8 -17 15 -31 15 -13 0 -21 4
-18 10 4 6 -5 10 -19 10 -14 0 -26 4 -26 9 0 5 -10 11 -22 13 -13 2 -22 9 -21
16 2 6 -7 12 -19 12 -17 0 -19 3 -10 12 7 7 12 27 12 45 0 18 5 33 10 33 6 0
10 11 10 24 0 14 5 28 10 31 6 3 10 19 10 36 0 19 5 29 15 29 10 0 15 11 15
35 0 19 5 35 10 35 6 0 10 11 10 24 0 13 7 27 16 30 9 4 14 13 10 21 -3 9 0
15 9 15 9 0 15 10 15 25 0 14 5 25 10 25 6 0 10 11 10 24 0 13 3 26 8 28 12 5
62 87 62 102 0 7 7 16 15 20 8 3 15 12 15 21 0 8 5 15 10 15 6 0 10 5 10 11 0
6 6 17 13 24 27 31 37 44 37 51 0 3 13 18 30 34 16 15 26 30 23 34 -3 3 -1 6
5 6 7 0 12 7 12 15 0 8 4 15 8 15 5 0 15 11 22 25 7 14 17 25 22 25 11 0 38
25 38 35 0 10 48 55 60 55 5 0 10 5 10 11 0 14 26 39 40 39 6 0 8 5 5 10 -3 6
1 10 9 10 9 0 16 6 16 13 0 8 11 20 25 27 14 7 25 17 25 22 0 4 7 8 15 8 8 0
15 7 15 15 0 8 7 15 15 15 8 0 15 5 15 10 0 6 4 10 10 10 5 0 24 16 43 35 19
19 42 35 51 35 9 0 15 4 11 9 -3 5 4 12 15 16 11 3 20 11 20 16 0 5 7 9 15 9
8 0 15 5 15 10 0 6 9 10 20 10 11 0 19 5 17 10 -1 6 12 18 28 28 17 9 32 20
33 25 2 4 13 7 23 7 12 0 17 4 14 11 -4 6 2 13 14 16 12 3 21 9 21 14 0 5 9 9
21 9 11 0 17 5 14 10 -4 6 5 10 20 10 16 0 24 4 20 11 -4 6 2 13 14 16 12 3
21 9 21 14 0 5 9 9 19 9 10 0 21 7 25 15 3 8 12 15 21 15 8 0 15 5 15 10 0 6
9 10 20 10 11 0 20 5 20 10 0 6 9 10 19 10 10 0 21 7 25 15 3 8 12 15 21 15 8
0 15 5 15 10 0 6 9 10 20 10 11 0 20 5 20 10 0 6 9 10 19 10 10 0 21 7 25 15
3 8 15 15 26 15 11 0 20 5 20 10 0 6 9 10 20 10 11 0 20 5 20 10 0 6 11 10 25
10 14 0 24 5 22 12 -1 7 8 14 21 16 12 2 22 8 22 13 0 5 12 9 26 9 14 0 23 4
19 10 -3 6 5 10 18 10 14 0 27 7 31 15 3 8 15 15 26 15 11 0 20 5 20 10 0 6 9
10 20 10 11 0 20 4 20 8 0 9 70 42 88 42 7 0 12 5 12 10 0 6 11 10 24 10 13 0
26 7 30 15 3 8 15 15 26 15 11 0 20 5 20 10 0 6 11 10 25 10 14 0 25 5 25 10
0 6 12 10 26 10 14 0 23 4 19 10 -3 6 2 13 12 16 10 3 26 10 35 15 10 5 27 9
38 9 11 0 20 5 20 10 0 6 11 10 24 10 13 0 26 7 30 15 3 8 15 15 26 15 11 0
20 5 20 10 0 6 11 10 25 10 14 0 25 5 25 10 0 6 11 10 24 10 13 0 26 7 30 15
3 8 15 15 26 15 11 0 20 5 20 10 0 6 14 10 31 10 16 0 28 4 25 9 -4 5 7 12 24
16 16 4 30 11 30 16 0 5 11 9 25 9 14 0 25 5 25 10 0 6 13 10 30 10 19 0 29 5
27 13 -1 7 10 13 26 15 15 2 27 8 27 13 0 5 11 9 25 9 14 0 25 5 25 10 0 6 13
10 30 10 19 0 29 5 27 13 -1 7 10 13 26 15 15 2 27 8 27 13 0 5 11 9 25 9 14
0 25 5 25 10 0 6 13 10 30 10 19 0 29 5 27 13 -1 7 10 13 26 15 15 2 27 8 27
13 0 5 11 9 25 9 14 0 25 5 25 10 0 6 14 10 30 10 20 0 30 5 30 15 0 9 9 15
25 15 14 0 25 5 25 10 0 6 14 10 30 10 17 0 30 4 30 10 0 5 11 12 25 16 14 3
25 10 25 15 0 5 11 9 25 9 14 0 25 5 25 10 0 6 13 10 29 10 16 0 31 6 35 15 3
8 15 15 26 15 11 0 20 5 20 10 0 6 14 10 30 10 17 0 30 4 30 9 0 5 12 11 28
13 l27 3 7 135 c4 74 10 187 13 251 l7 115 -39 -4 c-21 -3 -42 -11 -46 -18 -4
-8 -17 -14 -27 -14 -10 0 -22 -4 -25 -10 -3 -5 -17 -10 -31 -10 -13 0 -24 -4
-24 -10 0 -5 -13 -10 -30 -10 -19 0 -29 -5 -27 -12 1 -8 -10 -14 -25 -16 -16
-2 -28 -8 -28 -13 0 -5 -11 -9 -25 -9 -14 0 -25 -4 -25 -10 0 -5 -13 -10 -30
-10 -19 0 -29 -5 -27 -12 1 -8 -10 -14 -25 -16 -16 -2 -28 -8 -28 -13 0 -5
-11 -9 -25 -9 -14 0 -25 -4 -25 -10 0 -5 -13 -10 -30 -10 -19 0 -29 -5 -27
-12 1 -8 -10 -14 -25 -16 -16 -2 -28 -8 -28 -13 0 -5 -11 -9 -25 -9 -14 0 -25
-4 -25 -10 0 -5 -8 -10 -19 -10 -10 0 -24 -7 -31 -15 -7 -8 -23 -15 -36 -15
-13 0 -24 -4 -24 -10 0 -5 -14 -10 -32 -10 -17 0 -28 -3 -24 -7 8 -8 -60 -43
-86 -43 -10 0 -18 -4 -18 -10 0 -5 -11 -10 -25 -10 -14 0 -25 -4 -25 -8 0 -10
-71 -42 -93 -42 -10 0 -17 -4 -17 -10 0 -5 -11 -10 -25 -10 -16 0 -25 -6 -25
-15 0 -9 -9 -15 -25 -15 -14 0 -25 -4 -25 -10 0 -5 -11 -10 -25 -10 -14 0 -25
-4 -25 -10 0 -5 -14 -10 -31 -10 -18 0 -28 -4 -24 -10 3 -6 -2 -13 -12 -16
-10 -3 -26 -10 -35 -15 -10 -5 -27 -9 -38 -9 -12 0 -18 -4 -15 -10 3 -5 -3
-10 -13 -10 -11 0 -25 -7 -32 -15 -7 -8 -23 -15 -36 -15 -13 0 -24 -4 -24 -10
0 -5 -12 -10 -27 -10 -14 0 -23 -3 -19 -7 8 -8 -60 -43 -86 -43 -10 0 -18 -4
-18 -10 0 -5 -11 -10 -25 -10 -14 0 -25 -4 -25 -9 0 -11 -56 -41 -77 -41 -7 0
-13 -4 -13 -10 0 -5 -13 -10 -30 -10 -18 0 -29 -5 -27 -12 1 -7 -8 -14 -20
-16 -13 -2 -23 -8 -23 -13 0 -5 -11 -9 -25 -9 -14 0 -25 -4 -25 -10 0 -5 -11
-10 -25 -10 -14 0 -24 -5 -22 -12 1 -7 -8 -14 -20 -16 -13 -2 -23 -8 -23 -13
0 -5 -11 -9 -25 -9 -14 0 -25 -4 -25 -10 0 -5 -6 -10 -14 -10 -7 0 -19 -7 -26
-15 -7 -8 -21 -15 -31 -15 -11 0 -19 -4 -19 -10 0 -5 -9 -10 -20 -10 -11 0
-20 -3 -20 -7 0 -11 -58 -43 -76 -43 -8 0 -14 -4 -14 -10 0 -5 -9 -10 -20 -10
-11 0 -20 -4 -20 -9 0 -11 -56 -41 -77 -41 -7 0 -13 -4 -13 -10 0 -5 -9 -10
-19 -10 -10 0 -21 -7 -25 -15 -3 -8 -12 -15 -21 -15 -8 0 -15 -4 -15 -10 0 -5
-9 -10 -20 -10 -11 0 -20 -4 -20 -10 0 -5 -9 -10 -19 -10 -10 0 -21 -7 -25
-15 -3 -8 -12 -15 -21 -15 -8 0 -15 -4 -15 -10 0 -5 -9 -10 -20 -10 -11 0 -20
-4 -20 -10 0 -5 -6 -10 -14 -10 -8 0 -16 -7 -20 -15 -3 -8 -12 -15 -21 -15 -8
0 -15 -4 -15 -10 0 -5 -7 -10 -14 -10 -8 0 -27 -11 -42 -25 -15 -14 -33 -25
-40 -25 -8 0 -14 -4 -14 -10 0 -5 -9 -10 -21 -10 -12 0 -17 -4 -14 -11 4 -6
-2 -13 -14 -16 -12 -3 -21 -9 -21 -14 0 -5 -7 -9 -15 -9 -8 0 -15 -4 -15 -10
0 -5 -9 -10 -21 -10 -12 0 -17 -4 -14 -11 4 -6 -2 -13 -14 -16 -12 -3 -21 -9
-21 -14 0 -5 -7 -9 -15 -9 -8 0 -15 -4 -15 -10 0 -5 -7 -10 -15 -10 -8 0 -15
-7 -15 -15 0 -8 -7 -15 -15 -15 -8 0 -15 -4 -15 -10 0 -5 -5 -10 -10 -10 -6 0
-21 -11 -34 -25 -13 -14 -28 -25 -35 -25 -6 0 -11 -4 -11 -10 0 -5 -5 -10 -10
-10 -6 0 -26 -16 -44 -35 -19 -19 -39 -35 -45 -35 -6 0 -11 -5 -11 -11 0 -11
-24 -39 -34 -39 -7 0 -156 -149 -156 -156 0 -9 -49 -54 -60 -54 -5 0 -10 -5
-10 -10 0 -6 -11 -22 -25 -36 -14 -14 -25 -28 -25 -32 0 -11 -46 -62 -57 -62
-5 0 -15 -16 -23 -35 -8 -19 -20 -35 -27 -35 -8 0 -11 -5 -8 -10 3 -6 -1 -13
-9 -16 -9 -3 -16 -15 -16 -25 0 -10 -4 -19 -10 -19 -5 0 -10 -6 -10 -14 0 -8
-7 -16 -15 -20 -8 -3 -15 -12 -15 -21 0 -8 -4 -15 -10 -15 -5 0 -10 -7 -10
-15 0 -8 -4 -15 -9 -15 -5 0 -13 -10 -17 -22 -4 -13 -15 -30 -25 -39 -11 -9
-19 -26 -19 -38 0 -11 -3 -21 -7 -21 -11 0 -43 -58 -43 -76 0 -8 -4 -14 -8
-14 -4 0 -14 -16 -21 -35 -7 -19 -17 -35 -22 -35 -6 0 -7 -4 -4 -10 3 -5 2
-10 -2 -10 -5 0 -17 -22 -27 -50 -10 -27 -22 -47 -27 -44 -5 3 -9 -7 -9 -21 0
-27 -20 -55 -39 -55 -6 0 -11 5 -11 10 0 6 -9 10 -20 10 -11 0 -20 7 -20 15 0
8 -7 15 -15 15 -8 0 -15 5 -15 10 0 6 -6 10 -14 10 -7 0 -25 11 -40 25 -15 14
-31 25 -36 25 -4 0 -10 3 -12 8 -1 4 -16 15 -33 24 -16 10 -29 22 -28 28 2 5
-6 10 -16 10 -17 0 -31 18 -31 41 0 5 7 9 15 9 10 0 15 11 15 35 0 19 5 35 10
35 6 0 10 9 10 20 0 11 5 20 10 20 6 0 10 11 10 25 0 16 6 25 15 25 9 0 15 9
15 25 0 14 5 25 10 25 6 0 10 9 10 19 0 11 5 23 10 26 6 3 10 15 10 26 0 10 7
19 15 19 9 0 15 9 15 25 0 14 4 25 9 25 5 0 11 10 13 22 2 13 9 22 15 21 7 -2
10 4 7 12 -4 9 0 15 10 15 10 0 16 8 16 21 0 11 6 27 13 34 30 35 37 45 30 45
-4 0 4 11 20 24 15 13 27 30 27 37 1 19 24 49 39 49 6 0 11 6 11 13 0 7 11 24
25 39 14 15 25 30 25 33 0 3 15 21 33 39 50 53 87 96 87 102 0 9 49 54 60 54
5 0 9 4 7 8 -3 11 55 68 66 64 5 -1 6 1 3 6 -6 9 29 42 44 42 6 0 9 6 7 13 -1
6 4 11 11 10 6 -2 12 4 12 12 0 8 7 15 15 15 8 0 15 5 15 10 0 6 4 10 10 10 5
0 24 16 43 35 19 19 39 35 46 35 6 0 11 6 11 14 0 8 14 20 30 28 17 7 30 16
30 20 0 5 7 8 15 8 8 0 15 5 15 11 0 16 26 39 45 39 9 0 14 4 10 9 -3 5 4 12
15 16 11 3 20 11 20 16 0 5 7 9 15 9 8 0 15 5 15 10 0 6 5 10 10 10 6 0 23 11
38 25 15 14 32 25 39 25 7 0 13 5 13 10 0 6 9 10 20 10 11 0 19 5 17 10 -1 6
12 18 28 28 17 9 32 20 33 25 2 4 13 7 23 7 11 0 17 4 14 10 -3 5 12 18 35 27
22 10 40 21 40 25 0 5 9 8 20 8 11 0 20 6 20 13 0 7 16 19 35 27 19 8 35 17
35 22 0 4 18 16 40 25 22 10 40 21 40 25 0 5 9 8 20 8 11 0 20 5 20 10 0 6 18
18 40 27 22 10 40 21 40 25 0 5 12 8 26 8 14 0 22 4 19 10 -3 5 6 12 20 16 14
3 25 10 25 15 0 5 9 9 20 9 11 0 20 5 20 10 0 6 11 10 25 10 14 0 24 5 22 12
-1 7 8 14 21 16 12 2 22 8 22 13 0 5 12 9 26 9 14 0 23 4 19 10 -4 6 5 10 19
10 16 0 26 6 26 15 0 8 9 15 19 15 11 0 23 5 26 10 3 6 15 10 26 10 10 0 19 4
19 10 0 5 11 12 25 16 14 3 25 10 25 15 0 5 9 9 19 9 11 0 23 5 26 10 3 6 17
10 31 10 14 0 22 4 19 10 -3 5 6 12 20 16 14 3 25 10 25 15 0 5 11 9 25 9 14
0 25 5 25 10 0 6 11 10 24 10 13 0 26 7 30 15 3 8 15 15 26 15 11 0 20 5 20
10 0 6 11 10 25 10 14 0 25 5 25 10 0 6 11 10 25 10 16 0 25 6 25 15 0 9 9 15
25 15 14 0 25 5 25 10 0 6 11 10 25 10 14 0 25 5 25 10 0 6 11 10 24 10 13 0
26 7 30 15 3 8 14 15 25 15 11 0 23 5 26 10 3 6 17 10 30 10 12 0 25 7 29 15
3 8 15 15 26 15 11 0 20 5 20 10 0 6 11 10 25 10 14 0 25 5 25 10 0 6 14 10
31 10 18 0 28 4 24 10 -3 6 2 13 12 16 10 3 26 10 35 15 10 5 27 9 38 9 11 0
20 5 20 10 0 6 13 10 30 10 19 0 29 5 27 13 -1 7 10 13 26 15 15 2 27 8 27 13
0 5 11 9 25 9 14 0 25 5 25 10 0 6 13 10 30 10 19 0 29 5 27 13 -1 7 10 13 26
15 15 2 27 8 27 13 0 5 11 9 25 9 14 0 25 5 25 10 0 6 11 10 24 10 13 0 26 7
30 15 3 8 17 15 31 15 14 0 25 5 25 10 0 6 11 10 25 10 14 0 25 4 25 8 0 10
71 42 93 42 10 0 17 5 17 10 0 6 14 10 32 10 17 0 28 3 24 7 -8 8 60 43 86 43
10 0 18 5 18 10 0 6 14 10 31 10 18 0 28 4 24 10 -3 6 2 13 12 16 10 3 26 10
35 15 10 5 27 9 38 9 11 0 20 5 20 10 0 6 13 10 30 10 18 0 29 5 27 12 -1 7 8
14 21 16 12 2 22 8 22 13 0 5 14 9 31 9 17 0 28 4 24 10 -4 6 5 10 20 10 14 0
28 7 31 15 4 8 17 15 30 15 13 0 24 5 24 10 0 6 11 10 24 10 13 0 26 7 30 15
3 8 14 15 25 15 11 0 23 5 26 10 3 6 15 10 26 10 18 0 19 9 19 260 l0 260 -36
0 c-21 0 -33 -4 -29 -10 3 -6 -2 -13 -12 -16 -10 -3 -26 -10 -35 -15 -10 -5
-27 -9 -38 -9 -12 0 -18 -4 -15 -10 4 -6 -7 -10 -25 -10 -18 0 -29 -4 -25 -10
4 -6 -7 -13 -24 -16 -17 -4 -31 -10 -31 -15 0 -5 -11 -9 -25 -9 -14 0 -25 -4
-25 -10 0 -5 -11 -10 -25 -10 -16 0 -25 -6 -25 -15 0 -9 -9 -15 -25 -15 -14 0
-25 -4 -25 -10 0 -5 -11 -10 -25 -10 -14 0 -25 -4 -25 -10 0 -5 -11 -10 -24
-10 -13 0 -26 -7 -30 -15 -3 -8 -14 -15 -25 -15 -11 0 -23 -4 -26 -10 -3 -5
-17 -10 -30 -10 -12 0 -25 -7 -29 -15 -3 -8 -15 -15 -26 -15 -11 0 -20 -4 -20
-10 0 -5 -11 -10 -25 -10 -14 0 -25 -4 -25 -10 0 -5 -14 -10 -31 -10 -18 0
-28 -4 -24 -10 4 -6 -7 -13 -24 -16 -17 -4 -31 -10 -31 -15 0 -5 -11 -9 -25
-9 -14 0 -25 -4 -25 -10 0 -5 -13 -10 -30 -10 -19 0 -29 -5 -27 -12 1 -8 -10
-14 -25 -16 -16 -2 -28 -8 -28 -13 0 -5 -11 -9 -25 -9 -14 0 -25 -4 -25 -10 0
-5 -13 -10 -30 -10 -19 0 -29 -5 -27 -12 1 -8 -10 -14 -25 -16 -16 -2 -28 -8
-28 -13 0 -5 -11 -9 -25 -9 -14 0 -25 -4 -25 -10 0 -5 -11 -10 -24 -10 -13 0
-26 -7 -30 -15 -3 -8 -17 -15 -31 -15 -14 0 -25 -4 -25 -10 0 -5 -11 -10 -25
-10 -14 0 -25 -4 -25 -8 0 -10 -71 -42 -93 -42 -10 0 -17 -4 -17 -10 0 -5 -11
-10 -24 -10 -13 0 -26 -7 -30 -15 -3 -8 -14 -15 -25 -15 -11 0 -23 -4 -26 -10
-3 -5 -17 -10 -31 -10 -14 0 -22 -4 -19 -10 4 -6 -7 -10 -24 -10 -21 0 -31 -5
-31 -15 0 -9 -9 -15 -25 -15 -14 0 -25 -4 -25 -10 0 -5 -11 -10 -25 -10 -14 0
-25 -4 -25 -10 0 -5 -14 -10 -31 -10 -18 0 -28 -4 -24 -10 3 -6 -2 -13 -12
-16 -10 -3 -26 -10 -35 -15 -10 -5 -27 -9 -38 -9 -12 0 -18 -4 -15 -10 3 -6
-5 -10 -18 -10 -14 0 -27 -7 -31 -15 -3 -8 -17 -15 -31 -15 -14 0 -25 -4 -25
-10 0 -5 -11 -10 -25 -10 -14 0 -25 -4 -25 -10 0 -5 -11 -12 -25 -16 -14 -3
-25 -10 -25 -15 0 -5 -11 -9 -25 -9 -14 0 -25 -4 -25 -10 0 -5 -12 -10 -27
-10 -14 0 -23 -3 -19 -7 7 -8 -59 -43 -81 -43 -7 0 -13 -4 -13 -10 0 -5 -13
-10 -30 -10 -18 0 -29 -5 -27 -12 1 -7 -8 -14 -20 -16 -13 -2 -23 -8 -23 -13
0 -5 -12 -9 -26 -9 -14 0 -23 -4 -19 -10 4 -6 -7 -10 -24 -10 -19 0 -30 -5
-28 -12 1 -7 -8 -14 -20 -16 -13 -2 -23 -8 -23 -13 0 -5 -9 -9 -20 -9 -11 0
-20 -4 -20 -10 0 -5 -9 -10 -20 -10 -11 0 -23 -7 -26 -15 -4 -8 -15 -15 -25
-15 -10 0 -19 -4 -19 -10 0 -5 -9 -10 -21 -10 -11 0 -27 -6 -34 -12 -35 -32
-45 -38 -60 -38 -8 0 -15 -4 -15 -10 0 -5 -11 -10 -24 -10 -13 0 -26 -7 -30
-15 -3 -8 -12 -15 -21 -15 -8 0 -15 -4 -15 -10 0 -5 -9 -10 -20 -10 -11 0 -20
-4 -20 -10 0 -5 -9 -10 -19 -10 -10 0 -21 -7 -25 -15 -3 -8 -12 -15 -21 -15
-8 0 -15 -4 -15 -10 0 -5 -9 -10 -20 -10 -11 0 -20 -4 -20 -10 0 -5 -9 -10
-20 -10 -11 0 -20 -7 -20 -15 0 -8 -9 -15 -20 -15 -11 0 -20 -4 -20 -10 0 -5
-9 -10 -20 -10 -11 0 -20 -4 -20 -10 0 -5 -6 -10 -14 -10 -8 0 -16 -7 -20 -15
-3 -8 -12 -15 -21 -15 -8 0 -15 -4 -15 -10 0 -5 -9 -10 -19 -10 -10 0 -21 -7
-25 -15 -3 -8 -12 -15 -21 -15 -8 0 -15 -4 -15 -10 0 -5 -7 -10 -15 -10 -8 0
-15 -4 -15 -10 0 -5 -7 -10 -15 -10 -9 0 -26 -11 -39 -25 -13 -14 -31 -25 -40
-25 -9 0 -16 -4 -16 -10 0 -5 -7 -10 -15 -10 -8 0 -15 -7 -15 -15 0 -8 -7 -15
-15 -15 -8 0 -15 -4 -15 -10 0 -5 -9 -10 -20 -10 -11 0 -20 -4 -20 -10 0 -5
-7 -10 -15 -10 -8 0 -15 -7 -15 -15 0 -8 -7 -15 -15 -15 -8 0 -15 -4 -15 -10
0 -5 -5 -10 -11 -10 -7 0 -22 -11 -35 -25 -13 -14 -28 -25 -34 -25 -5 0 -10
-4 -10 -10 0 -5 -9 -10 -21 -10 -11 0 -18 -4 -15 -8 6 -9 -29 -42 -44 -42 -6
0 -10 -4 -10 -10 0 -5 -5 -10 -10 -10 -6 0 -21 -11 -34 -25 -13 -14 -28 -25
-35 -25 -6 0 -11 -4 -11 -10 0 -5 -7 -10 -15 -10 -8 0 -14 -4 -12 -8 3 -10
-49 -62 -63 -62 -5 0 -10 -5 -10 -11 0 -11 -25 -39 -35 -39 -8 0 -35 -27 -35
-35 0 -10 -28 -35 -39 -35 -6 0 -11 -3 -11 -7 0 -13 -47 -63 -59 -63 -6 0 -11
-5 -11 -10 0 -14 -46 -60 -60 -60 -5 0 -9 -4 -7 -9 1 -5 -7 -17 -19 -27 -11
-11 -29 -34 -39 -51 -11 -18 -23 -33 -27 -33 -4 0 -8 -6 -8 -13 0 -7 -11 -21
-25 -31 -14 -10 -25 -24 -25 -30 0 -7 -16 -29 -35 -50 -19 -21 -35 -43 -35
-48 0 -5 -11 -20 -25 -34 -14 -14 -25 -31 -25 -39 0 -8 -4 -15 -9 -15 -5 0
-15 -16 -22 -35 -7 -19 -19 -35 -26 -35 -7 0 -13 -11 -13 -25 0 -14 -4 -25 -9
-25 -5 0 -11 -10 -13 -22 -2 -13 -9 -22 -15 -21 -7 2 -10 -3 -7 -11 3 -7 -2
-20 -10 -29 -9 -9 -16 -25 -16 -35 0 -11 -5 -22 -11 -24 -5 -2 -12 -12 -13
-23 -2 -11 -9 -19 -15 -18 -6 2 -11 -8 -11 -21 0 -14 -4 -28 -10 -31 -5 -3
-10 -15 -10 -26 0 -10 -4 -19 -10 -19 -5 0 -10 -11 -10 -25 0 -14 -3 -25 -6
-25 -4 0 -17 11 -30 25 -13 14 -26 25 -29 25 -10 0 -35 28 -35 39 0 6 -7 11
-16 11 -8 0 -12 5 -9 10 3 6 1 10 -5 10 -12 0 -40 24 -40 35 0 3 -12 19 -27
34 -49 51 -52 57 -46 100 3 22 10 41 14 41 5 0 9 14 9 30 0 18 6 33 15 36 8 4
15 17 15 30 0 13 5 24 10 24 6 0 10 9 10 19 0 26 35 102 43 94 4 -3 7 6 7 20
0 15 3 27 8 27 4 0 15 18 25 40 9 22 21 40 27 40 5 0 10 9 10 20 0 11 5 20 10
20 6 0 10 6 10 14 0 7 7 19 15 26 8 7 12 16 9 21 -3 5 1 9 8 9 7 0 19 15 27
33 8 17 25 42 37 54 13 12 25 28 26 35 2 7 18 28 36 46 17 18 32 35 32 38 0 3
6 11 13 18 26 28 57 66 57 72 0 10 28 34 39 34 6 0 11 5 11 10 0 14 46 60 60
60 5 0 10 5 10 10 0 14 46 60 60 60 5 0 10 5 10 11 0 11 24 39 34 39 3 0 20
16 39 35 19 19 42 35 51 35 9 0 15 4 12 8 -6 10 29 42 45 42 5 0 7 5 4 10 -3
6 -1 10 5 10 6 0 21 11 34 25 13 14 31 25 40 25 10 0 14 5 11 10 -3 6 -1 10 5
10 6 0 21 11 34 25 13 14 31 25 40 25 9 0 16 5 16 10 0 6 7 10 15 10 8 0 15 7
15 15 0 8 7 15 15 15 8 0 15 5 15 10 0 6 4 10 9 10 6 0 22 11 37 25 15 14 33
25 40 25 8 0 14 5 14 10 0 6 4 10 9 10 6 0 22 11 37 25 15 14 33 25 40 25 8 0
14 5 14 10 0 6 9 10 21 10 11 0 18 4 14 9 -3 5 4 12 15 16 11 3 20 11 20 16 0
5 9 9 20 9 11 0 20 5 20 10 0 6 9 10 21 10 11 0 17 4 14 10 -3 5 12 18 35 27
22 10 40 21 40 25 0 5 9 8 20 8 11 0 20 7 20 15 0 8 9 15 20 15 11 0 20 5 20
10 0 6 7 10 15 10 15 0 25 6 60 38 7 6 21 12 29 12 9 0 16 5 16 10 0 6 9 10
19 10 10 0 21 7 25 15 3 8 12 15 21 15 8 0 15 5 15 10 0 6 9 10 20 10 11 0 20
5 20 10 0 6 11 10 25 10 16 0 25 6 25 15 0 8 9 15 20 15 11 0 20 5 20 10 0 6
9 10 20 10 11 0 20 5 20 10 0 6 11 10 25 10 16 0 25 6 25 15 0 8 9 15 20 15
11 0 20 5 20 10 0 6 11 10 25 10 14 0 25 5 25 10 0 6 9 10 20 10 11 0 20 7 20
15 0 9 9 15 25 15 14 0 25 5 25 10 0 6 11 10 25 10 14 0 24 5 23 12 -2 7 7 14
20 16 12 2 22 8 22 13 0 5 11 9 25 9 14 0 25 5 25 10 0 6 11 10 25 10 14 0 24
5 23 12 -2 7 7 14 20 16 12 2 22 8 22 13 0 5 11 9 25 9 14 0 25 5 25 10 0 6
11 10 25 10 16 0 25 6 25 15 0 9 9 15 25 15 14 0 25 5 25 10 0 6 11 10 25 10
14 0 25 5 25 10 0 6 12 10 26 10 14 0 23 4 19 10 -3 6 2 13 12 16 10 3 26 10
35 15 10 5 27 9 38 9 11 0 20 5 20 10 0 6 11 10 25 10 16 0 25 6 25 15 0 9 9
15 25 15 14 0 25 5 25 10 0 6 11 10 24 10 13 0 26 7 30 15 3 8 15 15 26 15 11
0 20 5 20 10 0 6 11 10 25 10 14 0 25 5 25 10 0 6 14 10 32 10 17 0 28 3 24 7
-8 8 60 43 86 43 10 0 18 5 18 10 0 6 11 10 24 10 13 0 26 7 30 15 3 8 15 15
26 15 11 0 20 5 20 10 0 6 14 10 30 10 17 0 30 5 30 10 0 6 11 10 25 10 16 0
25 6 25 15 0 9 9 15 25 15 14 0 25 5 25 10 0 6 14 10 31 10 17 0 28 4 24 10
-4 6 5 10 20 10 14 0 28 7 31 15 4 8 17 15 30 15 13 0 24 5 24 10 0 6 14 10
31 10 18 0 28 4 24 10 -4 6 7 13 24 16 17 4 31 10 31 15 0 5 11 9 25 9 14 0
25 5 25 10 0 6 13 10 30 10 19 0 29 5 27 13 -1 7 10 13 26 15 15 2 27 8 27 13
0 5 11 9 25 9 14 0 25 5 25 10 0 6 14 10 31 10 18 0 28 4 24 10 -3 6 2 13 12
16 10 3 26 10 35 15 10 5 27 9 38 9 11 0 20 5 20 10 0 6 11 10 24 10 13 0 26
7 30 15 3 8 14 15 25 15 11 0 23 5 26 10 3 6 17 10 31 10 13 0 24 5 24 10 0 6
9 10 20 10 11 0 23 7 26 15 4 8 17 15 30 15 13 0 24 5 24 10 0 6 11 10 25 10
14 0 25 4 25 8 0 9 70 42 88 42 7 0 12 5 12 10 0 6 13 10 30 10 19 0 29 5 27
13 -1 7 10 13 26 15 15 2 27 8 27 13 0 5 11 9 25 9 14 0 25 5 25 10 0 6 11 10
24 10 13 0 26 7 30 15 3 8 15 15 26 15 11 0 20 5 20 10 0 6 11 10 25 10 14 0
25 5 25 10 0 6 11 10 25 10 16 0 25 6 25 15 0 8 9 15 19 15 11 0 23 5 26 10 3
6 17 10 31 10 14 0 22 4 19 10 -3 6 2 10 13 10 10 0 29 8 40 19 22 18 22 24
22 285 0 230 -2 266 -15 266 -8 0 -15 -4 -15 -10 0 -5 -13 -10 -29 -10 -16 0
-31 -6 -35 -15 -3 -8 -15 -15 -26 -15 -11 0 -20 -4 -20 -10 0 -5 -11 -10 -25
-10 -14 0 -25 -4 -25 -10 0 -5 -14 -10 -31 -10 -18 0 -28 -4 -24 -10 3 -6 -2
-13 -12 -16 -10 -3 -26 -10 -35 -15 -10 -5 -27 -9 -38 -9 -12 0 -18 -4 -15
-10 4 -6 -7 -10 -24 -10 -21 0 -31 -5 -31 -15 0 -9 -9 -15 -25 -15 -14 0 -25
-4 -25 -10 0 -5 -14 -10 -31 -10 -18 0 -28 -4 -24 -10 4 -6 -7 -13 -24 -16
-17 -4 -31 -10 -31 -15 0 -5 -11 -9 -25 -9 -14 0 -25 -4 -25 -10 0 -5 -14 -10
-31 -10 -18 0 -28 -4 -24 -10 4 -6 -7 -13 -24 -16 -17 -4 -31 -10 -31 -15 0
-5 -11 -9 -25 -9 -14 0 -25 -4 -25 -10 0 -5 -14 -10 -31 -10 -18 0 -28 -4 -24
-10 4 -6 -7 -13 -24 -16 -17 -4 -31 -10 -31 -15 0 -5 -14 -9 -31 -9 -17 0 -28
-4 -24 -10 4 -6 -7 -10 -24 -10 -21 0 -31 -5 -31 -15 0 -9 -9 -15 -25 -15 -14
0 -25 -4 -25 -10 0 -5 -13 -10 -30 -10 -16 0 -30 -4 -30 -10 0 -5 -11 -10 -24
-10 -13 0 -26 -7 -30 -15 -3 -8 -14 -15 -25 -15 -11 0 -23 -4 -26 -10 -3 -5
-17 -10 -30 -10 -12 0 -25 -7 -29 -15 -3 -8 -14 -15 -25 -15 -11 0 -23 -4 -26
-10 -3 -5 -17 -10 -31 -10 -13 0 -24 -4 -24 -10 0 -5 -11 -10 -24 -10 -13 0
-26 -7 -30 -15 -3 -8 -14 -15 -25 -15 -11 0 -23 -4 -26 -10 -3 -5 -17 -10 -31
-10 -13 0 -24 -4 -24 -10 0 -5 -11 -10 -24 -10 -13 0 -26 -7 -30 -15 -3 -8
-14 -15 -25 -15 -11 0 -23 -4 -26 -10 -3 -5 -17 -10 -31 -10 -13 0 -24 -4 -24
-10 0 -5 -11 -10 -25 -10 -16 0 -25 -6 -25 -15 0 -9 -9 -15 -25 -15 -14 0 -25
-4 -25 -10 0 -5 -14 -10 -31 -10 -17 0 -28 -4 -24 -10 4 -6 -7 -10 -24 -10
-21 0 -31 -5 -31 -15 0 -9 -9 -15 -25 -15 -14 0 -25 -4 -25 -10 0 -5 -11 -10
-24 -10 -13 0 -26 -7 -30 -15 -3 -8 -15 -15 -26 -15 -11 0 -20 -4 -20 -10 0
-5 -11 -10 -25 -10 -14 0 -25 -4 -25 -10 0 -5 -14 -10 -31 -10 -18 0 -28 -4
-24 -10 3 -6 -2 -13 -12 -16 -10 -3 -26 -10 -35 -15 -10 -5 -25 -9 -33 -9 -8
0 -15 -4 -15 -10 0 -5 -14 -10 -31 -10 -18 0 -28 -4 -24 -10 3 -6 -2 -13 -12
-16 -10 -3 -26 -10 -35 -15 -10 -5 -25 -9 -33 -9 -8 0 -15 -4 -15 -10 0 -5
-14 -10 -30 -10 -18 0 -29 -5 -28 -12 2 -7 -7 -14 -19 -16 -13 -2 -23 -8 -23
-13 0 -5 -11 -9 -25 -9 -14 0 -25 -4 -25 -10 0 -5 -11 -10 -24 -10 -13 0 -26
-7 -30 -15 -3 -8 -15 -15 -26 -15 -11 0 -20 -4 -20 -10 0 -5 -12 -10 -27 -10
-14 0 -23 -3 -19 -7 7 -8 -59 -43 -81 -43 -7 0 -13 -4 -13 -10 0 -5 -12 -10
-27 -10 -14 0 -23 -3 -19 -7 7 -8 -59 -43 -81 -43 -7 0 -13 -4 -13 -10 0 -5
-11 -10 -25 -10 -14 0 -24 -5 -23 -12 2 -7 -7 -14 -19 -16 -13 -2 -23 -8 -23
-13 0 -5 -9 -9 -20 -9 -11 0 -20 -4 -20 -10 0 -5 -11 -10 -25 -10 -16 0 -25
-6 -25 -15 0 -8 -9 -15 -20 -15 -11 0 -20 -4 -20 -10 0 -5 -11 -10 -25 -10
-14 0 -25 -4 -25 -10 0 -5 -9 -10 -19 -10 -10 0 -21 -7 -25 -15 -3 -8 -12 -15
-21 -15 -8 0 -15 -4 -15 -10 0 -5 -12 -10 -26 -10 -14 0 -22 -4 -19 -10 3 -5
-6 -12 -20 -16 -14 -3 -25 -10 -25 -15 0 -5 -9 -9 -20 -9 -11 0 -20 -4 -20
-10 0 -5 -9 -10 -19 -10 -10 0 -21 -7 -25 -15 -3 -8 -12 -15 -21 -15 -8 0 -15
-4 -15 -10 0 -5 -9 -10 -20 -10 -11 0 -20 -4 -20 -10 0 -5 -12 -10 -26 -10
-15 0 -23 -4 -19 -11 4 -6 -2 -13 -14 -16 -12 -3 -21 -9 -21 -14 0 -5 -9 -9
-20 -9 -11 0 -20 -4 -20 -10 0 -5 -12 -10 -26 -10 -15 0 -23 -4 -19 -11 4 -6
-2 -13 -14 -16 -12 -3 -21 -9 -21 -14 0 -5 -9 -9 -20 -9 -11 0 -20 -4 -20 -10
0 -5 -7 -10 -15 -10 -9 0 -18 -7 -21 -15 -4 -8 -12 -15 -20 -15 -8 0 -14 -4
-14 -10 0 -5 -9 -10 -19 -10 -10 0 -21 -7 -25 -15 -3 -8 -12 -15 -21 -15 -8 0
-15 -4 -15 -10 0 -5 -7 -10 -15 -10 -8 0 -15 -4 -15 -10 0 -5 -7 -10 -14 -10
-8 0 -27 -11 -42 -25 -15 -14 -33 -25 -40 -25 -8 0 -14 -4 -14 -10 0 -5 -9
-10 -21 -10 -12 0 -17 -4 -14 -11 4 -6 -2 -13 -14 -16 -12 -3 -21 -9 -21 -14
0 -5 -7 -9 -15 -9 -8 0 -15 -4 -15 -10 0 -5 -9 -10 -21 -10 -12 0 -17 -4 -14
-11 4 -6 -2 -13 -14 -16 -12 -3 -21 -9 -21 -14 0 -5 -5 -9 -11 -9 -7 0 -22
-11 -35 -25 -13 -14 -30 -25 -39 -25 -8 0 -15 -4 -15 -10 0 -5 -7 -10 -15 -10
-8 0 -14 -5 -12 -10 1 -6 -11 -18 -28 -28 -16 -9 -31 -20 -33 -24 -2 -5 -10
-8 -18 -8 -8 0 -14 -7 -14 -15 0 -8 -6 -15 -13 -15 -7 0 -19 -9 -27 -20 -8
-11 -23 -20 -33 -20 -10 0 -16 -4 -12 -9 3 -5 -8 -18 -25 -27 -16 -10 -30 -22
-30 -26 0 -4 -7 -8 -15 -8 -8 0 -15 -5 -15 -11 0 -11 -24 -39 -34 -39 -8 0
-51 -37 -107 -92 -26 -27 -53 -48 -59 -48 -5 0 -9 -4 -7 -8 3 -10 -49 -62 -63
-62 -6 0 -9 -4 -6 -9 3 -5 -5 -17 -19 -27 -13 -10 -22 -21 -19 -26 3 -4 -2 -8
-10 -8 -9 0 -15 -3 -14 -7 3 -17 -15 -43 -30 -43 -8 0 -13 -3 -9 -6 3 -3 -9
-20 -27 -37 -18 -18 -41 -47 -51 -64 -11 -18 -23 -33 -27 -33 -4 0 -8 -6 -8
-14 0 -8 -7 -16 -15 -20 -8 -3 -15 -12 -15 -21 0 -8 -4 -15 -10 -15 -5 0 -10
-5 -10 -11 0 -6 -6 -17 -12 -24 -30 -33 -38 -45 -38 -55 0 -5 -4 -10 -10 -10
-5 0 -10 -8 -10 -19 0 -10 -11 -30 -25 -45 -14 -15 -25 -34 -25 -42 0 -7 -4
-14 -10 -14 -5 0 -10 -9 -10 -19 0 -10 -7 -22 -16 -25 -10 -4 -13 -13 -9 -26
5 -14 2 -20 -9 -20 -12 0 -16 -10 -16 -35 0 -19 -4 -35 -10 -35 -5 0 -10 -11
-10 -25 0 -16 -6 -25 -15 -25 -9 0 -15 9 -15 25 0 14 -4 25 -10 25 -5 0 -10 5
-10 11 0 6 -7 17 -15 26 -8 8 -13 18 -10 23 3 4 -2 10 -10 14 -8 3 -15 15 -15
26 0 11 -4 20 -10 20 -5 0 -10 14 -10 30 0 19 -6 33 -16 37 -8 3 -13 12 -10
20 3 7 -1 16 -9 19 -8 4 -15 17 -15 30 0 13 -4 24 -10 24 -5 0 -10 7 -10 15 0
8 5 15 10 15 6 0 10 9 10 19 0 11 6 26 13 33 8 7 12 18 10 24 -2 7 3 19 12 27
8 9 15 25 15 36 0 12 5 21 10 21 6 0 10 12 10 26 0 18 4 25 14 21 9 -4 13 3
14 21 0 14 5 28 11 30 6 2 11 12 11 23 0 10 5 19 10 19 6 0 10 6 10 14 0 8 7
16 15 20 8 3 15 12 15 21 0 8 5 15 10 15 6 0 10 8 10 18 0 10 8 27 18 38 10
10 27 34 37 52 11 17 23 32 27 32 4 0 8 5 8 11 0 6 6 17 13 24 27 31 37 44 37
50 0 11 28 35 40 35 6 0 8 5 5 10 -3 6 1 13 9 16 8 3 18 14 21 25 4 10 13 19
21 19 8 0 12 5 9 10 -3 6 -1 10 4 10 6 0 11 5 11 11 0 14 25 39 39 39 6 0 11
5 11 11 0 14 26 39 40 39 6 0 8 5 5 10 -3 6 1 10 9 10 9 0 16 7 16 15 0 8 3
15 8 15 6 0 20 10 90 71 12 10 27 19 33 19 5 0 8 4 5 8 -6 9 29 42 44 42 6 0
10 5 10 10 0 6 9 10 21 10 11 0 18 4 15 8 -6 9 29 42 44 42 6 0 10 5 10 10 0
6 9 10 21 10 12 0 17 4 14 11 -4 6 2 13 14 16 12 3 21 9 21 14 0 5 7 9 15 9 8
0 15 5 15 10 0 6 4 10 9 10 6 0 22 11 37 25 15 14 31 25 35 25 4 0 20 11 35
25 15 14 33 25 40 25 8 0 14 5 14 10 0 6 9 10 20 10 11 0 20 6 20 13 0 7 16
19 35 27 19 8 35 17 35 22 0 4 9 8 20 8 11 0 20 6 20 13 0 7 16 19 35 27 19 8
35 17 35 22 0 4 12 8 26 8 15 0 23 4 19 11 -4 6 2 13 14 16 12 3 21 9 21 14 0
5 9 9 20 9 11 0 20 5 20 10 0 6 9 10 20 10 11 0 20 7 20 15 0 8 9 15 20 15 11
0 20 5 20 10 0 6 9 10 21 10 11 0 17 4 14 10 -3 5 12 18 35 27 22 10 40 21 40
25 0 5 12 8 26 8 14 0 22 4 19 10 -3 5 12 18 35 27 22 10 40 21 40 25 0 5 12
8 26 8 14 0 22 4 19 10 -3 5 12 18 35 27 22 10 40 21 40 25 0 5 11 8 25 8 14
0 24 5 23 12 -2 7 7 14 20 16 12 2 22 8 22 13 0 5 9 9 20 9 11 0 20 5 20 10 0
6 6 10 14 10 7 0 19 7 26 15 7 8 21 15 31 15 11 0 19 5 19 10 0 6 9 10 20 10
11 0 20 3 20 8 0 10 58 42 76 42 8 0 14 5 14 10 0 6 11 10 25 10 16 0 25 6 25
15 0 8 9 15 20 15 11 0 20 5 20 10 0 6 11 10 25 10 14 0 25 5 25 10 0 6 11 10
25 10 14 0 24 5 23 12 -2 7 7 14 20 16 12 2 22 8 22 13 0 5 11 9 25 9 14 0 25
5 25 10 0 6 11 10 25 10 14 0 24 5 23 12 -2 7 7 14 20 16 12 2 22 8 22 13 0 5
11 9 25 9 14 0 25 5 25 10 0 6 9 10 20 10 11 0 23 7 26 15 4 8 17 15 30 15 13
0 24 5 24 10 0 6 11 10 25 10 14 0 25 4 25 10 0 5 11 12 25 16 14 3 25 10 25
15 0 5 11 9 25 9 14 0 25 5 25 10 0 6 11 10 24 10 13 0 26 7 30 15 3 8 15 15
26 15 11 0 20 5 20 10 0 6 11 10 25 10 14 0 25 5 25 10 0 6 14 10 31 10 18 0
28 4 24 10 -3 6 2 13 12 16 10 3 26 10 35 15 10 5 27 9 38 9 11 0 20 5 20 10
0 6 11 10 24 10 13 0 26 7 30 15 3 8 14 15 25 15 11 0 23 5 26 10 3 6 17 10
31 10 13 0 24 5 24 10 0 6 8 10 19 10 10 0 24 7 31 15 7 8 21 15 31 15 10 0
21 5 24 10 3 6 17 10 31 10 13 0 24 4 24 8 0 10 71 42 93 42 10 0 17 5 17 10
0 6 14 10 30 10 19 0 29 5 28 13 -2 7 9 13 25 15 15 2 27 8 27 13 0 5 14 9 31
9 17 0 28 4 24 10 -4 6 6 10 23 10 17 0 32 6 36 15 3 8 17 15 31 15 14 0 25 5
25 10 0 6 11 10 25 10 14 0 25 5 25 10 0 6 13 10 29 10 16 0 31 6 35 15 3 8
14 15 25 15 11 0 23 5 26 10 3 6 17 10 31 10 13 0 24 5 24 10 0 6 8 10 19 10
10 0 24 7 31 15 7 8 23 15 36 15 13 0 24 5 24 10 0 6 14 10 30 10 17 0 30 4
30 8 0 10 71 42 93 42 10 0 17 5 17 10 0 6 13 10 29 10 16 0 31 6 35 15 3 8
14 15 25 15 11 0 23 5 26 10 3 6 17 10 31 10 13 0 24 5 24 10 0 6 14 10 31 10
18 0 28 4 24 10 -4 6 7 13 24 16 17 4 31 10 31 15 0 5 14 9 30 9 17 0 30 5 30
10 0 6 14 10 30 10 19 0 29 5 28 13 -2 7 9 13 25 15 15 2 27 8 27 13 0 5 9 9
21 9 11 0 27 7 35 15 9 8 24 15 35 15 10 0 19 5 19 10 0 6 11 10 25 10 14 0
25 5 25 10 0 6 14 10 31 10 18 0 28 4 24 10 -4 6 7 13 24 16 17 4 31 10 31 15
0 5 11 9 25 9 14 0 25 5 25 10 0 6 14 10 31 10 18 0 28 4 24 10 -3 6 2 13 12
16 10 3 26 10 35 15 10 5 27 9 38 9 11 0 20 5 20 10 0 6 11 10 25 10 15 0 24
5 22 13 -1 7 10 13 26 15 15 2 27 8 27 13 0 5 9 9 20 9 11 0 29 8 40 17 19 17
20 29 20 270 l0 253 -30 0 c-16 0 -30 -4 -30 -10 0 -5 -11 -10 -25 -10 -14 0
-25 -4 -25 -10 0 -5 -11 -10 -25 -10 -16 0 -25 -6 -25 -15 0 -9 -9 -15 -25
-15 -14 0 -25 -4 -25 -10 0 -5 -11 -10 -25 -10 -14 0 -25 -4 -25 -8 0 -9 -70
-42 -88 -42 -7 0 -12 -4 -12 -10 0 -5 -14 -10 -31 -10 -18 0 -28 -4 -24 -10 3
-6 -2 -13 -12 -16 -10 -3 -26 -10 -35 -15 -10 -5 -27 -9 -38 -9 -11 0 -20 -4
-20 -10 0 -5 -11 -10 -24 -10 -13 0 -26 -7 -30 -15 -3 -8 -15 -15 -26 -15 -11
0 -20 -4 -20 -10 0 -5 -11 -10 -25 -10 -14 0 -25 -4 -25 -10 0 -5 -14 -10 -31
-10 -18 0 -28 -4 -24 -10 3 -6 -2 -13 -12 -16 -10 -3 -26 -10 -35 -15 -10 -5
-27 -9 -38 -9 -11 0 -20 -4 -20 -10 0 -5 -14 -10 -31 -10 -18 0 -28 -4 -24
-10 3 -6 -2 -13 -12 -16 -10 -3 -26 -10 -35 -15 -10 -5 -27 -9 -38 -9 -11 0
-20 -4 -20 -10 0 -5 -11 -12 -25 -16 -14 -3 -25 -10 -25 -15 0 -5 -11 -9 -25
-9 -14 0 -25 -4 -25 -10 0 -5 -13 -10 -29 -10 -16 0 -31 -6 -35 -15 -3 -8 -15
-15 -26 -15 -11 0 -20 -4 -20 -10 0 -5 -11 -10 -25 -10 -14 0 -25 -4 -25 -10
0 -5 -13 -10 -29 -10 -16 0 -31 -6 -35 -15 -3 -8 -15 -15 -26 -15 -11 0 -20
-4 -20 -10 0 -5 -11 -10 -25 -10 -14 0 -25 -4 -25 -10 0 -5 -13 -10 -29 -10
-16 0 -31 -6 -35 -15 -3 -8 -15 -15 -26 -15 -11 0 -20 -4 -20 -10 0 -5 -13
-10 -30 -10 -16 0 -30 -4 -30 -10 0 -5 -11 -10 -24 -10 -13 0 -26 -7 -30 -15
-3 -8 -14 -15 -25 -15 -11 0 -23 -4 -26 -10 -3 -5 -17 -10 -30 -10 -12 0 -26
-7 -29 -16 -3 -8 -10 -13 -15 -10 -5 4 -16 -1 -24 -9 -9 -8 -27 -15 -41 -15
-14 0 -26 -4 -26 -10 0 -5 -11 -10 -24 -10 -13 0 -26 -7 -30 -15 -3 -8 -14
-15 -25 -15 -11 0 -23 -4 -26 -10 -3 -5 -17 -10 -31 -10 -13 0 -24 -4 -24 -10
0 -5 -14 -10 -31 -10 -18 0 -28 -4 -24 -10 3 -6 -2 -13 -12 -16 -10 -3 -26
-10 -35 -15 -10 -5 -27 -9 -38 -9 -11 0 -20 -4 -20 -10 0 -5 -11 -10 -24 -10
-13 0 -26 -7 -30 -15 -3 -8 -14 -15 -25 -15 -11 0 -23 -4 -26 -10 -3 -5 -17
-10 -31 -10 -13 0 -24 -4 -24 -10 0 -5 -11 -10 -25 -10 -16 0 -25 -6 -25 -15
0 -9 -9 -15 -25 -15 -14 0 -25 -4 -25 -10 0 -5 -14 -10 -32 -10 -17 0 -28 -3
-24 -7 8 -8 -60 -43 -86 -43 -10 0 -18 -4 -18 -10 0 -5 -11 -10 -24 -10 -13 0
-26 -7 -30 -15 -3 -8 -15 -15 -26 -15 -11 0 -20 -4 -20 -10 0 -5 -11 -10 -25
-10 -14 0 -25 -4 -25 -10 0 -5 -11 -10 -24 -10 -13 0 -26 -7 -30 -15 -3 -8
-15 -15 -26 -15 -11 0 -20 -4 -20 -10 0 -5 -11 -10 -25 -10 -14 0 -25 -4 -25
-10 0 -5 -11 -10 -25 -10 -16 0 -25 -6 -25 -15 0 -9 -9 -15 -25 -15 -14 0 -25
-4 -25 -10 0 -5 -12 -10 -26 -10 -14 0 -23 -4 -19 -10 3 -6 -5 -10 -18 -10
-14 0 -27 -7 -31 -15 -3 -8 -15 -15 -26 -15 -11 0 -20 -4 -20 -10 0 -5 -11
-10 -25 -10 -14 0 -25 -3 -25 -7 0 -11 -58 -43 -76 -43 -8 0 -14 -4 -14 -10 0
-5 -11 -10 -25 -10 -14 0 -25 -4 -25 -9 0 -11 -56 -41 -77 -41 -7 0 -13 -4
-13 -10 0 -5 -11 -10 -25 -10 -16 0 -25 -6 -25 -15 0 -8 -9 -15 -20 -15 -11 0
-20 -4 -20 -10 0 -5 -12 -10 -26 -10 -14 0 -23 -4 -19 -10 3 -6 -5 -10 -18
-10 -14 0 -27 -7 -31 -15 -3 -8 -12 -15 -21 -15 -8 0 -15 -4 -15 -10 0 -5 -12
-10 -26 -10 -14 0 -23 -4 -19 -10 4 -6 -5 -10 -19 -10 -16 0 -26 -6 -26 -15 0
-8 -9 -15 -20 -15 -11 0 -20 -4 -20 -10 0 -5 -12 -10 -27 -10 -14 0 -23 -3
-20 -7 8 -8 -48 -43 -68 -43 -8 0 -15 -4 -15 -10 0 -5 -9 -10 -19 -10 -10 0
-21 -7 -25 -15 -3 -8 -12 -15 -21 -15 -8 0 -15 -4 -15 -10 0 -5 -9 -10 -20
-10 -11 0 -20 -4 -20 -10 0 -5 -9 -10 -19 -10 -10 0 -21 -7 -25 -15 -3 -8 -12
-15 -21 -15 -8 0 -15 -4 -15 -10 0 -5 -9 -10 -20 -10 -11 0 -20 -4 -20 -10 0
-5 -9 -10 -20 -10 -11 0 -20 -7 -20 -15 0 -8 -9 -15 -20 -15 -11 0 -20 -4 -20
-10 0 -5 -9 -10 -21 -10 -11 0 -17 -4 -14 -10 3 -5 -3 -10 -14 -10 -12 0 -21
-4 -21 -10 0 -5 -17 -17 -37 -27 -21 -9 -43 -22 -50 -28 -7 -5 -19 -16 -27
-22 -8 -7 -22 -13 -31 -13 -8 0 -15 -4 -15 -10 0 -5 -9 -10 -21 -10 -12 0 -17
-4 -14 -11 4 -6 -2 -13 -14 -16 -12 -3 -21 -9 -21 -14 0 -5 -9 -9 -20 -9 -11
0 -20 -4 -20 -10 0 -5 -9 -10 -21 -10 -12 0 -17 -4 -14 -11 4 -6 -2 -13 -14
-16 -12 -3 -21 -9 -21 -14 0 -5 -9 -9 -20 -9 -11 0 -20 -4 -20 -10 0 -5 -7
-10 -15 -10 -8 0 -15 -7 -15 -15 0 -8 -9 -15 -20 -15 -11 0 -20 -4 -20 -10 0
-5 -7 -10 -15 -10 -8 0 -15 -4 -15 -10 0 -5 -7 -10 -15 -10 -9 0 -18 -7 -21
-15 -4 -8 -12 -15 -20 -15 -8 0 -14 -4 -14 -10 0 -5 -10 -10 -22 -10 -17 0
-19 3 -10 12 9 9 12 86 12 285 0 175 4 273 10 273 6 0 10 30 10 70 0 40 4 70
10 70 6 0 10 20 10 44 0 30 5 46 15 50 9 3 15 18 15 36 0 16 5 30 10 30 6 0
10 11 10 25 0 14 5 25 10 25 6 0 10 8 10 19 0 10 7 24 15 31 8 7 15 19 15 26
0 8 5 14 10 14 6 0 10 5 10 11 0 6 14 24 31 40 17 16 29 29 25 29 -3 0 8 14
24 30 16 17 36 30 45 30 9 0 14 4 11 8 -6 9 29 42 44 42 6 0 10 5 10 10 0 6 6
10 14 10 8 0 16 7 20 15 3 8 12 15 21 15 8 0 15 5 15 10 0 6 9 10 20 10 11 0
20 5 20 10 0 6 7 10 15 10 9 0 18 7 21 15 4 8 15 15 25 15 10 0 19 5 19 10 0
6 11 10 25 10 14 0 25 3 25 8 0 11 59 42 81 42 10 0 19 5 19 10 0 6 11 10 24
10 13 0 26 7 30 15 3 8 14 15 25 15 11 0 23 5 26 10 3 6 17 10 31 10 13 0 24
5 24 10 0 6 13 10 30 10 19 0 29 5 27 13 -1 7 10 13 26 15 15 2 27 8 27 13 0
5 11 9 25 9 14 0 25 5 25 10 0 6 14 10 30 10 20 0 30 5 30 15 0 9 9 15 25 15
14 0 25 5 25 10 0 6 14 10 30 10 17 0 30 4 30 8 0 10 71 42 93 42 10 0 17 5
17 10 0 6 11 10 25 10 14 0 25 4 25 8 0 10 71 42 93 42 10 0 17 5 17 10 0 6
14 10 31 10 18 0 28 4 24 10 -4 6 7 13 24 16 17 4 31 10 31 15 0 5 14 9 30 9
17 0 30 5 30 10 0 6 11 10 24 10 13 0 26 7 30 15 3 8 14 15 25 15 11 0 23 5
26 10 3 6 17 10 31 10 13 0 24 5 24 10 0 6 13 10 30 10 19 0 29 5 27 13 -1 7
10 13 26 15 15 2 27 8 27 13 0 5 14 9 31 9 18 0 28 4 24 10 -4 6 7 13 24 16
17 4 31 10 31 15 0 5 11 9 25 9 14 0 25 5 25 10 0 6 13 10 29 10 16 0 31 6 35
15 3 8 14 15 25 15 11 0 23 5 26 10 3 6 17 10 31 10 13 0 24 5 24 10 0 6 13
10 30 10 19 0 29 5 27 13 -1 7 10 13 26 15 15 2 27 8 27 13 0 5 11 9 25 9 14
0 25 5 25 10 0 6 13 10 29 10 16 0 31 6 35 15 3 8 15 15 26 15 11 0 20 5 20
10 0 6 14 10 30 10 17 0 30 5 30 10 0 6 13 10 30 10 19 0 29 5 27 13 -1 7 10
13 26 15 15 2 27 8 27 13 0 5 9 9 21 9 11 0 27 7 35 15 9 8 24 15 35 15 10 0
19 5 19 10 0 6 11 10 25 10 14 0 25 5 25 10 0 6 13 10 29 10 16 0 31 6 35 15
3 8 10 15 16 15 6 0 18 6 26 14 11 12 14 59 14 245 l0 231 -35 0 c-19 0 -35
-4 -35 -10 0 -5 -14 -10 -31 -10 -18 0 -28 -4 -24 -10 3 -6 -2 -13 -12 -16
-10 -3 -26 -10 -35 -15 -10 -5 -27 -9 -38 -9 -11 0 -20 -4 -20 -10 0 -5 -14
-10 -31 -10 -18 0 -28 -4 -24 -10 4 -6 -7 -13 -24 -16 -17 -4 -31 -10 -31 -15
0 -5 -14 -9 -31 -9 -17 0 -28 -4 -24 -10 4 -6 -6 -10 -23 -10 -17 0 -32 -6
-36 -15 -3 -8 -14 -15 -25 -15 -11 0 -23 -4 -26 -10 -3 -5 -17 -10 -31 -10
-13 0 -24 -4 -24 -10 0 -5 -8 -10 -19 -10 -10 0 -24 -7 -31 -15 -7 -8 -23 -15
-36 -15 -13 0 -24 -4 -24 -10 0 -5 -14 -10 -31 -10 -18 0 -28 -4 -24 -10 4 -6
-7 -13 -24 -16 -17 -4 -31 -10 -31 -15 0 -5 -11 -9 -25 -9 -14 0 -25 -4 -25
-10 0 -5 -13 -10 -29 -10 -16 0 -31 -6 -35 -15 -3 -8 -14 -15 -25 -15 -11 0
-23 -4 -26 -10 -3 -5 -17 -10 -31 -10 -13 0 -24 -4 -24 -10 0 -15 -29 -12 -46
4 -8 8 -14 24 -14 35 0 12 -4 21 -10 21 -5 0 -10 6 -10 14 0 8 -7 16 -15 20
-8 3 -15 11 -15 18 0 7 -11 22 -25 32 -13 10 -22 22 -19 27 3 5 0 9 -6 9 -7 0
-27 16 -46 35 -18 19 -38 35 -44 35 -6 0 -8 5 -5 10 3 6 -3 10 -14 10 -12 0
-21 5 -21 10 0 6 -7 10 -15 10 -9 0 -18 7 -21 15 -4 8 -15 15 -25 15 -10 0
-19 5 -19 10 0 6 -11 10 -24 10 -14 0 -28 5 -31 10 -3 6 -17 10 -31 10 -14 0
-27 7 -30 15 -4 10 -20 15 -50 15 -24 0 -44 4 -44 9 0 17 -348 36 -370 21z
m246 -445 c4 -9 19 -15 40 -15 19 0 34 -4 34 -10 0 -5 11 -10 25 -10 14 0 25
-4 25 -10 0 -5 7 -10 15 -10 8 0 15 -7 15 -15 0 -8 5 -15 10 -15 14 0 60 -46
60 -60 0 -5 5 -10 10 -10 6 0 10 -4 10 -10 0 -5 -11 -10 -25 -10 -15 0 -24 -5
-23 -12 2 -8 -9 -14 -24 -16 -16 -2 -28 -8 -28 -13 0 -5 -11 -9 -25 -9 -14 0
-25 -4 -25 -10 0 -5 -13 -10 -30 -10 -20 0 -30 -5 -30 -15 0 -9 -9 -15 -25
-15 -14 0 -25 -4 -25 -10 0 -5 -13 -10 -30 -10 -16 0 -30 -4 -30 -10 0 -5 -11
-10 -24 -10 -13 0 -26 -7 -30 -15 -3 -8 -15 -15 -26 -15 -11 0 -20 -4 -20 -10
0 -5 -13 -10 -30 -10 -16 0 -30 -4 -30 -10 0 -5 -13 -10 -30 -10 -19 0 -29 -5
-27 -12 1 -8 -10 -14 -25 -16 -16 -2 -28 -8 -28 -13 0 -5 -11 -9 -25 -9 -14 0
-25 -4 -25 -8 0 -10 -71 -42 -93 -42 -10 0 -17 -4 -17 -10 0 -5 -14 -10 -31
-10 -18 0 -28 -4 -24 -10 4 -6 -7 -13 -24 -16 -17 -4 -31 -10 -31 -15 0 -5
-11 -9 -25 -9 -14 0 -25 -4 -25 -10 0 -5 -13 -10 -29 -10 -16 0 -31 -6 -35
-15 -3 -8 -15 -15 -26 -15 -11 0 -20 -4 -20 -10 0 -5 -11 -10 -25 -10 -14 0
-25 -4 -25 -10 0 -5 -11 -10 -25 -10 -14 0 -25 -4 -25 -9 0 -11 -56 -41 -77
-41 -7 0 -13 -4 -13 -10 0 -5 -9 -10 -20 -10 -11 0 -20 -4 -20 -9 0 -11 -57
-41 -77 -41 -8 0 -11 -5 -8 -11 4 -6 -2 -13 -14 -16 -12 -3 -21 -9 -21 -14 0
-5 -9 -9 -20 -9 -11 0 -20 -4 -20 -10 0 -5 -5 -10 -11 -10 -6 0 -16 -6 -23
-12 -27 -26 -66 -58 -72 -58 -3 0 -15 -11 -28 -25 -13 -14 -28 -25 -35 -25 -6
0 -11 -4 -11 -10 0 -5 -7 -10 -15 -10 -8 0 -14 -3 -12 -8 1 -4 -14 -24 -33
-43 -42 -43 -70 -77 -70 -85 0 -3 -11 -16 -25 -30 -14 -14 -25 -31 -25 -39 0
-8 -4 -15 -10 -15 -5 0 -10 -9 -10 -20 0 -11 -4 -20 -10 -20 -5 0 -10 -7 -10
-15 0 -9 -7 -18 -15 -21 -8 -4 -15 -17 -15 -29 0 -13 -4 -27 -10 -30 -5 -3
-10 -14 -10 -24 0 -10 -6 -24 -14 -30 -7 -6 -13 -23 -13 -38 0 -15 -6 -29 -12
-31 -6 -2 -11 -21 -11 -42 0 -21 -4 -42 -10 -45 -5 -3 -10 -26 -10 -50 0 -25
-6 -50 -15 -59 -11 -11 -15 -38 -15 -106 0 -58 -4 -89 -10 -85 -7 4 -10 -163
-10 -495 l0 -501 -35 -35 c-19 -19 -35 -39 -35 -45 0 -14 -26 -39 -40 -39 -6
0 -9 -4 -6 -9 3 -5 -6 -17 -19 -27 -14 -10 -25 -24 -25 -31 0 -7 -11 -23 -25
-37 -14 -14 -25 -28 -25 -31 0 -6 -11 -20 -37 -50 -7 -7 -13 -18 -13 -24 0 -6
-4 -11 -10 -11 -5 0 -10 -9 -10 -20 0 -11 -7 -20 -16 -20 -8 0 -12 -5 -9 -10
3 -6 -1 -13 -9 -16 -9 -3 -16 -15 -16 -25 0 -10 -4 -19 -10 -19 -5 0 -10 -9
-10 -21 0 -11 -6 -26 -13 -34 -19 -18 -32 405 -30 945 2 442 11 642 31 662 7
7 12 40 12 85 0 42 4 73 10 73 6 0 10 23 10 50 0 28 5 50 10 50 6 0 10 23 10
50 0 38 4 50 15 50 11 0 15 11 15 40 0 22 5 40 10 40 6 0 10 13 10 29 0 17 5
33 10 36 6 3 10 19 10 36 0 19 5 29 15 29 9 0 15 9 15 23 0 13 4 27 10 33 5 5
11 18 13 29 5 29 29 75 39 75 4 0 8 8 8 18 0 9 11 30 25 46 14 16 25 35 25 43
0 7 4 13 9 13 5 0 15 15 22 33 7 17 24 43 36 57 13 14 23 29 23 34 0 5 20 29
45 53 25 23 45 45 45 49 0 10 28 34 40 34 6 0 8 5 5 10 -3 6 1 10 9 10 9 0 16
5 16 11 0 14 25 39 39 39 6 0 11 5 11 10 0 6 7 10 16 10 8 0 13 4 10 8 -6 10
29 42 45 42 5 0 20 11 33 25 13 14 28 25 35 25 6 0 11 5 11 10 0 6 9 10 20 10
11 0 20 6 20 13 0 7 16 19 35 27 19 8 35 17 35 22 0 4 11 8 25 8 16 0 25 6 25
15 0 8 9 15 20 15 11 0 20 5 20 10 0 6 11 10 25 10 14 0 25 5 25 10 0 6 11 10
24 10 13 0 26 7 30 15 3 8 14 15 25 15 11 0 23 5 26 10 3 6 17 10 31 10 13 0
24 5 24 10 0 6 14 10 30 10 20 0 30 5 30 15 0 10 10 15 30 15 17 0 30 5 30 10
0 6 14 10 31 10 16 0 28 4 24 9 -3 6 10 13 30 17 19 3 35 10 35 15 0 5 14 9
30 9 17 0 30 5 30 10 0 6 15 10 34 10 21 0 36 6 40 15 3 9 18 15 35 15 16 0
33 5 36 10 3 6 24 10 46 10 21 0 39 5 39 10 0 6 23 10 51 10 28 0 48 4 45 9
-11 16 16 19 177 20 131 1 159 -1 163 -14z"/>
<path d="M14000 9570 c0 -5 -7 -10 -15 -10 -9 0 -15 -9 -15 -24 0 -14 -7 -31
-15 -40 -8 -8 -15 -24 -15 -35 0 -12 -4 -21 -10 -21 -5 0 -10 -11 -10 -25 0
-14 -4 -25 -10 -25 -5 0 -10 -14 -10 -30 0 -18 -6 -33 -15 -36 -8 -4 -15 -17
-15 -30 0 -13 -4 -24 -10 -24 -5 0 -10 -9 -10 -19 0 -11 -4 -23 -10 -26 -5 -3
-10 -15 -10 -25 0 -10 -7 -25 -15 -34 -8 -8 -15 -24 -15 -35 0 -12 -4 -21 -10
-21 -5 0 -10 -8 -10 -17 0 -25 -31 -103 -41 -103 -5 0 -9 -11 -9 -25 0 -14 -4
-25 -8 -25 -4 0 -14 -20 -21 -46 -7 -25 -20 -51 -27 -59 -8 -7 -14 -23 -14
-34 0 -12 -4 -21 -10 -21 -5 0 -10 -11 -10 -24 0 -14 -7 -31 -15 -40 -8 -8
-15 -24 -15 -35 0 -12 -4 -21 -10 -21 -5 0 -10 -11 -10 -25 0 -14 -4 -25 -9
-25 -5 0 -12 -16 -15 -35 -4 -20 -11 -33 -17 -30 -5 4 -9 -5 -9 -19 0 -14 -4
-26 -10 -26 -5 0 -10 -11 -10 -25 0 -14 -4 -25 -10 -25 -5 0 -10 -11 -10 -24
0 -14 -7 -31 -15 -40 -8 -8 -15 -24 -15 -35 0 -12 -4 -21 -10 -21 -5 0 -10
-11 -10 -25 0 -14 -4 -25 -9 -25 -5 0 -12 -16 -15 -35 -4 -19 -11 -35 -16 -35
-6 0 -10 -9 -10 -20 0 -11 -4 -20 -10 -20 -5 0 -10 -11 -10 -25 0 -14 -4 -25
-10 -25 -5 0 -10 -11 -10 -24 0 -14 -7 -31 -15 -40 -8 -8 -15 -24 -15 -35 0
-12 -4 -21 -10 -21 -5 0 -10 -11 -10 -24 0 -13 -7 -29 -15 -36 -8 -7 -15 -23
-15 -36 0 -13 -4 -24 -10 -24 -5 0 -10 -9 -10 -20 0 -11 -4 -20 -10 -20 -5 0
-10 -11 -10 -24 0 -14 -7 -31 -15 -40 -8 -8 -15 -24 -15 -35 0 -12 -4 -21 -10
-21 -5 0 -10 -11 -10 -25 0 -14 -4 -25 -10 -25 -5 0 -10 -9 -10 -19 0 -28 -11
-52 -21 -45 -5 3 -9 -8 -9 -25 0 -16 -4 -31 -9 -33 -5 -1 -11 -21 -13 -43 l-3
-40 233 -3 c152 -1 232 1 232 8 0 5 7 10 15 10 8 0 15 9 15 20 0 11 7 23 15
26 8 4 15 17 15 30 0 13 5 24 10 24 6 0 10 13 10 29 0 17 5 33 10 36 6 3 10
15 10 26 0 11 7 22 15 25 9 4 15 19 15 35 0 16 5 29 10 29 6 0 10 11 10 24 0
13 7 27 16 30 9 4 14 13 10 21 -7 19 3 47 15 39 5 -3 9 9 9 25 l0 31 425 0
c414 0 425 -1 425 -19 0 -11 5 -23 10 -26 6 -3 10 -15 10 -26 0 -10 4 -19 9
-19 5 0 12 -13 16 -30 4 -16 11 -32 16 -35 5 -4 9 -17 9 -31 0 -13 5 -24 10
-24 6 0 10 -14 10 -31 0 -16 4 -28 9 -25 10 7 21 -17 21 -45 0 -10 5 -19 10
-19 6 0 10 -11 10 -25 0 -14 5 -25 10 -25 6 0 10 -14 10 -31 0 -22 5 -32 20
-36 11 -3 20 -9 20 -14 0 -5 108 -9 240 -9 l240 0 0 45 c0 25 -4 45 -10 45 -5
0 -10 11 -10 25 0 16 -6 25 -15 25 -9 0 -15 9 -15 25 0 14 -4 25 -10 25 -5 0
-10 16 -10 35 0 19 -4 35 -10 35 -5 0 -10 9 -10 20 0 11 -7 23 -15 26 -8 4
-15 14 -15 24 0 11 -4 22 -10 25 -5 3 -10 19 -10 36 0 16 -4 29 -10 29 -5 0
-10 11 -10 25 0 16 -6 25 -15 25 -9 0 -15 9 -15 24 0 14 -4 28 -10 31 -5 3
-10 19 -10 36 0 20 -5 29 -16 29 -10 0 -14 6 -10 15 3 8 -1 21 -9 29 -8 8 -15
20 -15 27 0 23 -25 84 -37 92 -7 4 -13 17 -13 27 0 11 -4 20 -10 20 -5 0 -10
13 -10 29 0 17 -4 33 -10 36 -5 3 -10 17 -10 31 0 15 -6 24 -15 24 -9 0 -15 9
-15 25 0 14 -4 25 -10 25 -5 0 -10 13 -10 29 0 17 -4 33 -10 36 -5 3 -10 15
-10 26 0 10 -7 19 -15 19 -9 0 -15 9 -15 25 0 14 -4 25 -10 25 -5 0 -10 16
-10 35 0 19 -4 35 -10 35 -5 0 -10 9 -10 20 0 11 -7 23 -15 26 -8 4 -15 17
-15 30 0 13 -4 24 -10 24 -5 0 -10 14 -10 30 0 17 -6 33 -14 36 -8 3 -12 12
-9 20 3 7 -2 17 -11 20 -9 3 -16 17 -16 29 0 13 -4 27 -10 30 -5 3 -10 19 -10
36 0 19 -5 29 -15 29 -9 0 -15 9 -15 25 0 14 -4 25 -10 25 -5 0 -10 11 -10 25
0 14 -4 25 -10 25 -5 0 -10 14 -10 30 0 18 -6 33 -15 36 -8 4 -15 15 -15 25 0
10 -4 19 -10 19 -5 0 -10 14 -10 30 0 17 -4 30 -10 30 -5 0 -10 14 -10 30 0
20 -5 30 -15 30 -9 0 -15 9 -15 25 0 14 -4 25 -10 25 -5 0 -10 16 -10 35 0 19
-4 35 -10 35 -5 0 -10 9 -10 20 0 11 -7 23 -15 26 -8 4 -15 15 -15 25 0 10 -4
19 -9 19 -5 0 -11 10 -13 23 -3 22 -3 22 -220 25 -143 1 -218 -1 -218 -8z
m230 -681 c0 -11 5 -19 10 -19 6 0 10 -12 10 -26 0 -14 4 -23 10 -19 9 6 14
-14 11 -43 -1 -7 5 -15 14 -18 8 -3 15 -17 15 -30 0 -13 5 -24 10 -24 6 0 10
-16 10 -35 0 -25 4 -35 16 -35 10 0 14 -6 10 -15 -3 -8 1 -21 9 -29 8 -8 15
-28 15 -45 0 -17 5 -31 10 -31 6 0 10 -11 10 -25 0 -15 6 -25 14 -25 7 0 16
-12 18 -27 3 -16 9 -36 13 -45 7 -17 -8 -18 -229 -18 -151 0 -236 4 -236 10 0
6 5 10 10 10 6 0 10 11 10 25 0 14 5 25 10 25 6 0 10 11 10 24 0 14 7 31 15
40 8 8 15 24 15 35 0 12 5 21 10 21 6 0 10 9 10 19 0 11 7 26 15 35 8 8 15 26
15 40 0 14 5 26 10 26 6 0 10 9 10 20 0 11 5 20 10 20 6 0 10 16 10 35 0 24 5
35 15 35 9 0 15 9 15 25 0 14 5 25 10 25 6 0 10 16 10 35 0 19 5 35 10 35 6 0
10 12 10 28 1 27 1 27 15 -7 8 -18 15 -42 15 -52z"/>
<path d="M19060 9563 c0 -28 -27 -97 -39 -101 -6 -2 -11 -12 -11 -22 0 -10 -4
-21 -8 -24 -4 -3 -14 -28 -22 -56 -8 -29 -20 -54 -27 -57 -7 -3 -13 -16 -13
-29 0 -13 -4 -24 -9 -24 -6 0 -11 -15 -13 -32 -2 -20 -8 -32 -15 -30 -8 1 -13
-9 -13 -28 0 -16 -4 -30 -10 -30 -5 0 -10 -8 -10 -18 0 -10 -4 -22 -9 -27 -6
-6 -12 -23 -14 -40 -2 -16 -10 -29 -16 -27 -6 1 -11 -9 -11 -23 0 -14 -4 -25
-10 -25 -5 0 -10 -11 -10 -25 0 -14 -4 -25 -10 -25 -5 0 -10 -14 -10 -30 0
-18 -6 -33 -15 -36 -8 -4 -15 -17 -15 -30 0 -13 -4 -24 -8 -24 -8 0 -38 -90
-34 -103 1 -4 -5 -10 -13 -13 -8 -4 -15 -15 -15 -25 0 -10 -4 -19 -10 -19 -5
0 -10 -8 -10 -17 0 -25 -31 -103 -41 -103 -5 0 -9 -11 -9 -25 0 -14 -4 -25
-10 -25 -5 0 -10 -9 -10 -19 0 -27 -11 -52 -20 -46 -4 2 -7 -7 -7 -22 0 -15
-6 -29 -12 -31 -6 -2 -11 -12 -11 -23 0 -10 -4 -19 -10 -19 -5 0 -10 -11 -10
-24 0 -14 -7 -31 -15 -40 -8 -8 -15 -24 -15 -35 0 -12 -4 -21 -10 -21 -5 0
-10 -11 -10 -25 0 -14 -4 -25 -10 -25 -5 0 -10 -11 -10 -24 0 -14 -7 -31 -15
-40 -8 -8 -15 -24 -15 -35 0 -12 -4 -21 -10 -21 -5 0 -10 -9 -10 -20 0 -11 -4
-20 -10 -20 -5 0 -10 -11 -10 -24 0 -14 -7 -31 -15 -40 -8 -8 -15 -24 -15 -35
0 -12 -4 -21 -10 -21 -5 0 -10 -11 -10 -25 0 -14 -4 -25 -10 -25 -5 0 -10 -11
-10 -24 0 -14 -7 -31 -15 -40 -8 -8 -15 -24 -15 -35 0 -12 -4 -21 -10 -21 -5
0 -10 -9 -10 -19 0 -11 -6 -26 -13 -33 -8 -7 -12 -18 -10 -24 2 -7 -3 -19 -12
-27 -8 -9 -15 -25 -15 -36 0 -12 -4 -21 -10 -21 -5 0 -10 -16 -10 -35 l0 -35
235 0 236 0 24 25 c14 13 25 33 25 45 0 11 5 20 10 20 6 0 10 11 10 24 0 14 5
28 10 31 6 3 10 19 10 36 0 19 5 29 15 29 9 0 15 9 15 25 0 14 5 25 10 25 6 0
10 16 10 35 0 19 5 35 10 35 6 0 10 11 10 25 0 16 6 25 15 25 10 0 15 10 15
33 0 18 5 38 12 45 9 9 119 12 435 12 l423 0 0 -35 c0 -19 5 -35 10 -35 6 0
10 -9 10 -21 0 -11 7 -27 15 -35 8 -9 15 -26 15 -40 0 -13 5 -24 10 -24 6 0
10 -9 10 -20 0 -11 5 -20 10 -20 6 0 10 -15 10 -34 0 -21 6 -36 15 -40 8 -3
15 -15 15 -26 0 -11 5 -20 10 -20 6 0 10 -16 10 -36 0 -21 4 -33 10 -29 6 3
10 2 10 -3 0 -5 8 -19 19 -30 18 -21 25 -22 260 -22 l241 0 0 35 c0 19 -4 35
-10 35 -5 0 -10 11 -10 25 0 14 -4 25 -10 25 -5 0 -10 11 -10 25 0 15 -5 24
-12 23 -8 -2 -14 10 -16 30 -2 17 -7 32 -13 32 -5 0 -9 11 -9 24 0 13 -7 27
-16 30 -8 3 -13 10 -10 15 4 5 -1 16 -9 24 -8 9 -15 29 -15 46 0 17 -4 31 -10
31 -5 0 -10 11 -10 25 0 16 -6 25 -15 25 -8 0 -15 9 -15 19 0 11 -4 23 -10 26
-5 3 -10 19 -10 36 0 16 -4 29 -10 29 -5 0 -10 11 -10 25 0 16 -6 25 -15 25
-9 0 -15 9 -15 24 0 14 -4 28 -10 31 -5 3 -10 19 -10 36 0 16 -4 29 -10 29 -5
0 -10 9 -10 20 0 11 -7 23 -15 26 -8 4 -15 17 -15 30 0 13 -4 24 -8 24 -4 0
-9 12 -10 27 -1 15 -8 31 -16 35 -8 5 -12 16 -9 28 4 14 0 20 -11 20 -11 0
-16 9 -16 29 0 17 -4 33 -10 36 -5 3 -10 17 -10 31 0 15 -6 24 -16 24 -10 0
-14 6 -10 15 3 8 -1 21 -9 29 -8 8 -15 26 -15 40 0 14 -4 28 -10 31 -5 3 -10
14 -10 25 0 10 -7 20 -15 24 -8 3 -15 15 -15 26 0 11 -4 20 -10 20 -5 0 -10
16 -10 35 0 19 -4 35 -10 35 -5 0 -10 11 -10 25 0 16 -6 25 -15 25 -9 0 -15 9
-15 25 0 14 -4 25 -10 25 -5 0 -10 16 -10 35 0 19 -4 35 -10 35 -5 0 -10 9
-10 19 0 10 -7 21 -15 25 -8 3 -15 14 -15 25 0 11 -4 23 -10 26 -5 3 -10 19
-10 35 0 15 -7 30 -15 34 -8 3 -12 12 -9 21 4 8 -1 17 -10 21 -9 3 -16 17 -16
30 0 13 -4 24 -10 24 -5 0 -10 16 -10 35 0 25 -4 35 -16 35 -10 0 -14 6 -11
14 3 8 -1 20 -9 26 -8 7 -14 23 -14 36 0 13 -4 24 -10 24 -5 0 -10 14 -10 30
0 20 -5 30 -15 30 -9 0 -15 9 -15 25 0 14 -4 25 -9 25 -6 0 -11 15 -13 33 l-3
32 -232 3 c-217 2 -233 1 -233 -15z m240 -643 c0 -11 5 -20 10 -20 6 0 10 -11
10 -25 0 -14 5 -25 10 -25 6 0 10 -14 10 -31 0 -16 4 -28 9 -25 10 7 21 -17
21 -45 0 -10 5 -19 10 -19 6 0 10 -11 10 -25 0 -14 5 -25 10 -25 6 0 10 -14
10 -30 0 -18 6 -33 15 -36 8 -4 15 -15 15 -25 0 -10 5 -19 10 -19 6 0 10 -16
10 -35 0 -19 5 -35 10 -35 6 0 10 -11 10 -25 0 -16 6 -25 15 -25 9 0 15 -9 15
-23 0 -13 5 -28 12 -35 9 -9 -41 -12 -225 -12 l-237 0 0 25 c0 14 5 25 10 25
6 0 10 9 10 19 0 10 7 21 15 25 9 3 15 18 15 36 0 16 5 30 10 30 6 0 10 11 10
25 0 14 5 25 10 25 6 0 10 11 10 24 0 14 7 31 15 40 8 8 15 24 15 35 0 12 5
21 10 21 6 0 10 8 10 18 0 27 27 96 39 100 6 2 11 12 11 22 0 10 5 22 10 25 6
3 10 19 10 36 0 19 5 29 15 29 8 0 15 -9 15 -20z"/>
<path d="M22595 9560 c-4 -11 -11 -18 -16 -15 -5 4 -9 -8 -9 -24 0 -17 -4 -31
-10 -31 -5 0 -10 -11 -10 -24 0 -13 -7 -27 -16 -30 -10 -4 -13 -13 -9 -25 3
-11 -1 -25 -10 -34 -8 -9 -15 -25 -15 -36 0 -12 -4 -21 -10 -21 -5 0 -10 -11
-10 -24 0 -13 -7 -27 -16 -30 -9 -3 -14 -13 -10 -21 3 -8 -1 -21 -9 -29 -8 -8
-15 -24 -15 -35 0 -12 -4 -21 -10 -21 -5 0 -10 -11 -10 -25 0 -16 -6 -25 -15
-25 -10 0 -15 -11 -15 -35 0 -19 -4 -35 -10 -35 -5 0 -10 -11 -10 -25 0 -14
-4 -25 -10 -25 -5 0 -10 -11 -10 -25 0 -16 -6 -25 -15 -25 -10 0 -15 -11 -15
-35 0 -19 -4 -35 -10 -35 -5 0 -10 -9 -10 -20 0 -11 -4 -20 -10 -20 -5 0 -10
-11 -10 -25 0 -16 -6 -25 -15 -25 -10 0 -15 -11 -15 -35 0 -19 -4 -35 -10 -35
-5 0 -10 -11 -10 -24 0 -13 -7 -27 -15 -30 -9 -3 -15 -11 -14 -18 3 -26 -1
-39 -11 -33 -6 4 -10 -8 -10 -29 0 -20 -4 -36 -10 -36 -5 0 -10 -9 -10 -19 0
-10 -7 -22 -16 -25 -10 -4 -14 -14 -11 -26 3 -11 -1 -27 -9 -34 -8 -8 -14 -24
-14 -35 0 -12 -4 -21 -10 -21 -5 0 -10 -11 -10 -25 0 -16 -6 -25 -15 -25 -10
0 -15 -11 -15 -35 0 -19 -4 -35 -10 -35 -5 0 -10 -11 -10 -25 0 -14 -4 -25
-10 -25 -5 0 -10 -9 -10 -19 0 -10 -7 -21 -15 -25 -9 -3 -15 -18 -15 -36 0
-16 -4 -30 -10 -30 -5 0 -10 -11 -10 -25 0 -14 -4 -25 -10 -25 -5 0 -10 -11
-10 -25 0 -16 -6 -25 -15 -25 -10 0 -15 -11 -15 -35 0 -19 -4 -35 -10 -35 -5
0 -10 -11 -10 -24 0 -13 -7 -26 -15 -30 -8 -3 -12 -12 -9 -19 3 -8 -2 -17 -10
-20 -10 -4 -16 -18 -16 -37 0 -16 -4 -30 -10 -30 -5 0 -10 -11 -10 -24 0 -13
-7 -26 -15 -30 -8 -3 -15 -15 -15 -26 0 -11 -4 -20 -10 -20 -5 0 -10 -16 -10
-35 0 -19 -4 -35 -10 -35 -5 0 -10 -11 -10 -25 0 -16 -6 -25 -15 -25 -11 0
-15 -12 -15 -45 l0 -45 235 0 c150 0 235 4 235 10 0 6 7 10 15 10 9 0 15 9 15
25 0 14 5 25 10 25 6 0 10 11 10 24 0 13 7 26 15 30 8 3 12 12 9 19 -3 8 2 21
10 30 9 9 16 27 16 41 0 14 5 26 10 26 6 0 10 9 10 19 0 10 7 21 15 25 9 3 15
18 15 36 0 16 5 30 10 30 6 0 10 11 10 25 0 14 5 25 10 25 6 0 10 16 10 35 l0
35 431 0 c338 0 430 -3 427 -12 -3 -7 1 -19 9 -26 7 -7 13 -22 13 -33 0 -10 5
-19 10 -19 6 0 10 -11 10 -25 0 -14 5 -25 10 -25 6 0 10 -16 10 -35 0 -24 5
-35 15 -35 9 0 15 -9 15 -25 0 -14 5 -25 10 -25 6 0 10 -16 10 -35 0 -19 5
-35 10 -35 6 0 10 -11 10 -25 0 -16 6 -25 15 -25 10 0 15 -11 15 -35 0 -24 5
-35 15 -35 8 0 15 -4 15 -10 0 -6 88 -10 245 -10 l245 0 0 45 c0 33 -4 45 -15
45 -9 0 -15 9 -15 25 0 14 -4 25 -10 25 -5 0 -10 16 -10 35 0 24 -5 35 -15 35
-9 0 -15 9 -15 25 0 14 -4 25 -10 25 -5 0 -10 9 -10 19 0 11 -4 23 -10 26 -5
3 -10 20 -10 36 0 17 -6 32 -15 35 -8 4 -15 15 -15 25 0 10 -4 19 -10 19 -5 0
-10 11 -10 25 0 14 -4 25 -10 25 -5 0 -10 16 -10 35 0 24 -5 35 -15 35 -9 0
-15 9 -15 25 0 14 -4 25 -10 25 -5 0 -10 11 -10 25 0 14 -4 25 -10 25 -5 0
-10 14 -10 30 0 18 -6 33 -15 36 -8 4 -15 15 -15 25 0 10 -4 19 -10 19 -5 0
-10 14 -10 31 0 17 -4 28 -10 24 -5 -3 -10 0 -11 7 -2 32 -9 53 -18 56 -6 2
-11 15 -11 28 0 13 -4 24 -10 24 -5 0 -10 9 -10 21 0 11 -7 27 -15 35 -8 9
-15 26 -15 40 0 13 -4 24 -10 24 -5 0 -10 9 -10 20 0 11 -4 20 -10 20 -5 0
-10 13 -10 29 0 16 -6 31 -15 35 -8 3 -15 17 -15 31 0 14 -4 25 -10 25 -5 0
-10 11 -10 25 0 14 -4 25 -10 25 -5 0 -10 14 -10 30 0 18 -6 33 -15 36 -8 4
-15 17 -15 30 0 13 -4 24 -10 24 -5 0 -10 9 -10 20 0 11 -4 20 -10 20 -5 0
-10 16 -10 35 0 24 -5 35 -15 35 -9 0 -15 9 -15 25 0 14 -4 25 -10 25 -5 0
-10 11 -10 24 0 13 -5 26 -11 28 -6 2 -13 17 -15 33 -1 16 -8 31 -13 33 -6 2
-11 15 -11 28 0 13 -4 24 -10 24 -5 0 -10 12 -10 26 0 14 -4 23 -9 19 -6 -3
-13 10 -17 30 -3 19 -10 35 -15 35 -5 0 -9 11 -9 25 0 14 -4 25 -10 25 -5 0
-10 14 -10 31 0 16 -4 28 -9 25 -10 -7 -21 17 -21 45 0 10 -4 19 -10 19 -5 0
-10 11 -10 25 0 14 -4 25 -10 25 -5 0 -10 11 -10 25 0 14 -4 25 -9 25 -5 0
-13 9 -16 20 -6 19 -15 20 -225 20 -210 0 -219 -1 -225 -20z m235 -653 c0 -16
7 -30 16 -34 8 -3 13 -12 10 -20 -3 -7 1 -16 9 -19 9 -4 15 -19 15 -40 0 -19
5 -34 10 -34 6 0 10 -11 10 -24 0 -13 5 -26 11 -28 12 -4 39 -73 39 -100 0
-10 5 -18 10 -18 6 0 10 -9 10 -21 0 -11 7 -27 15 -35 8 -9 15 -26 15 -40 0
-13 5 -24 10 -24 6 0 10 -9 10 -20 0 -11 4 -20 9 -20 5 0 11 -11 13 -25 l5
-25 -241 0 c-191 1 -238 3 -226 13 8 7 17 21 18 32 2 11 8 22 13 23 5 2 9 15
9 28 0 13 5 24 10 24 6 0 10 16 10 35 0 26 4 35 16 35 11 0 15 6 11 19 -3 12
1 22 9 25 8 3 14 19 14 35 0 16 5 33 10 36 6 3 10 14 10 25 0 10 7 20 15 24 9
3 15 18 15 36 0 16 5 30 10 30 6 0 10 11 10 25 0 14 5 25 10 25 6 0 10 9 10
19 0 11 3 27 6 36 5 13 8 14 15 3 6 -8 9 -1 9 22 0 26 3 31 10 20 5 -8 10 -28
10 -43z"/>
<path d="M11047 9553 c-4 -3 -7 -468 -7 -1033 0 -805 3 -1030 13 -1043 11 -16
35 -17 247 -15 l235 3 3 328 2 327 164 0 c145 0 165 -2 179 -18 10 -10 14 -22
10 -25 -3 -4 1 -7 10 -7 10 0 17 -8 17 -20 0 -11 5 -20 10 -20 6 0 10 -7 10
-15 0 -8 5 -15 10 -15 6 0 10 -7 10 -15 0 -8 11 -25 25 -39 14 -14 25 -34 25
-46 0 -11 5 -20 11 -20 17 0 39 -27 39 -47 0 -10 11 -27 25 -37 14 -10 25 -26
25 -35 0 -9 9 -23 20 -31 11 -8 20 -20 20 -27 0 -7 11 -23 25 -37 14 -14 25
-34 25 -46 0 -11 5 -20 11 -20 15 0 38 -31 39 -50 0 -9 9 -22 20 -30 11 -8 20
-20 20 -27 0 -7 7 -13 15 -13 8 0 15 -4 15 -10 0 -6 97 -10 270 -10 l270 0 0
35 c0 25 -4 35 -16 35 -10 0 -14 6 -10 15 3 8 0 14 -6 12 -7 -1 -14 7 -16 18
-2 11 -14 28 -26 38 -11 10 -21 22 -21 27 0 5 -10 20 -22 34 -13 15 -23 31
-23 36 0 6 -4 10 -9 10 -5 0 -13 10 -17 23 -4 12 -15 29 -25 38 -11 9 -19 21
-19 27 0 6 -11 22 -25 36 -14 14 -25 34 -25 46 0 11 -5 20 -11 20 -15 0 -38
31 -39 50 0 9 -9 22 -20 30 -11 8 -20 20 -20 27 0 7 -11 23 -25 37 -14 14 -25
30 -25 35 0 6 -11 21 -25 35 -14 14 -25 30 -25 36 0 5 -5 10 -11 10 -5 0 -8 4
-4 9 3 6 -3 14 -12 20 -16 9 -16 10 5 11 12 0 21 6 20 12 -2 7 7 14 20 16 12
2 22 8 22 13 0 5 9 9 20 9 11 0 20 5 20 10 0 6 9 10 20 10 11 0 19 5 18 10 -2
6 10 18 26 28 38 22 116 103 116 119 0 5 11 17 25 27 14 10 25 27 25 37 0 11
5 19 10 19 6 0 10 11 10 24 0 13 7 27 16 30 8 3 15 16 14 28 -4 41 0 59 9 53
6 -3 12 30 14 77 3 46 8 99 12 119 4 23 3 39 -4 43 -6 4 -11 40 -11 86 0 50
-4 80 -12 82 -6 2 -11 18 -10 36 0 18 -3 32 -8 32 -5 0 -12 16 -16 35 -3 19
-10 35 -15 35 -5 0 -9 9 -9 21 0 11 -4 18 -9 14 -5 -3 -12 4 -16 15 -3 11 -11
20 -16 20 -5 0 -9 5 -9 11 0 6 -15 26 -34 44 -19 18 -32 36 -29 39 4 3 -1 6
-10 6 -9 0 -17 5 -17 10 0 6 -7 10 -15 10 -8 0 -15 7 -15 15 0 8 -7 15 -15 15
-8 0 -15 5 -15 10 0 6 -9 10 -20 10 -11 0 -20 5 -20 10 0 6 -9 10 -20 10 -11
0 -23 7 -26 15 -4 9 -19 15 -36 15 -17 0 -27 4 -23 10 4 6 -8 10 -29 10 -19 0
-38 5 -41 10 -3 6 -24 10 -45 10 -46 0 -72 9 -64 21 6 10 -1139 13 -1149 2z
m1051 -452 c9 -6 30 -12 45 -16 15 -3 25 -10 22 -15 -3 -6 3 -10 14 -10 24 0
71 -38 71 -57 0 -7 5 -13 10 -13 6 0 10 -9 10 -19 0 -11 5 -23 10 -26 6 -3 10
-52 10 -111 0 -63 -4 -104 -10 -104 -5 0 -10 -9 -10 -20 0 -22 -41 -70 -60
-70 -6 0 -9 -4 -5 -9 7 -12 -51 -41 -82 -41 -12 0 -23 -4 -23 -10 0 -6 -100
-10 -280 -10 l-280 0 0 270 0 270 270 0 c150 0 278 -4 288 -9z"/>
<path d="M15712 8513 l3 -1048 233 -3 232 -2 1 662 c1 607 2 660 16 626 9 -21
20 -38 24 -38 5 0 9 -11 9 -25 0 -14 5 -25 11 -25 16 0 39 -27 39 -46 0 -9 10
-25 22 -36 12 -10 23 -26 24 -34 1 -8 12 -23 23 -33 12 -10 21 -25 21 -32 0
-8 12 -25 25 -38 14 -13 25 -31 25 -41 0 -10 7 -21 16 -24 8 -3 12 -10 9 -16
-3 -5 1 -10 10 -10 9 0 14 -4 10 -9 -3 -5 2 -16 10 -24 8 -9 15 -18 15 -22 0
-4 6 -13 13 -20 29 -33 37 -45 37 -55 0 -5 5 -10 10 -10 6 0 10 -9 10 -19 0
-10 7 -22 16 -25 9 -4 14 -9 11 -12 -5 -6 0 -15 31 -49 6 -7 12 -18 12 -24 0
-6 3 -11 8 -11 4 0 16 -16 26 -35 11 -19 23 -35 28 -35 4 0 8 -8 8 -18 0 -19
33 -52 51 -52 15 0 49 39 49 57 0 7 5 13 10 13 6 0 10 7 10 15 0 8 5 15 10 15
6 0 10 9 10 20 0 11 7 20 16 20 8 0 12 5 9 10 -3 6 1 13 9 16 9 3 16 15 16 25
0 10 5 19 10 19 6 0 10 6 10 14 0 8 7 16 15 20 8 3 15 12 15 21 0 8 5 15 10
15 6 0 10 7 10 15 0 8 5 15 10 15 6 0 10 7 10 15 0 9 11 26 25 39 14 13 25 30
25 39 0 8 11 25 25 38 13 13 25 30 25 37 0 7 6 20 13 27 30 34 37 45 31 45 -4
0 2 9 14 20 12 11 24 31 28 45 3 13 12 26 20 29 8 3 14 12 14 21 0 8 5 15 10
15 6 0 10 5 10 10 0 10 8 22 38 55 6 7 12 18 12 24 0 6 5 11 10 11 6 0 10 8
10 18 0 9 7 26 15 36 13 18 15 -58 15 -642 l0 -662 235 0 235 0 0 1050 0 1050
-260 0 c-178 0 -260 -3 -260 -11 0 -6 -7 -17 -15 -26 -8 -8 -13 -19 -10 -24 4
-5 -1 -9 -9 -9 -9 0 -16 -9 -16 -20 0 -12 -11 -32 -25 -46 -14 -14 -25 -31
-25 -39 0 -8 -4 -15 -8 -15 -5 0 -14 -16 -22 -35 -8 -19 -19 -35 -25 -35 -6 0
-11 -9 -12 -21 -1 -11 -11 -29 -22 -39 -12 -9 -21 -27 -21 -39 0 -11 -6 -21
-14 -21 -7 0 -20 -15 -27 -32 -7 -18 -19 -39 -26 -46 -7 -7 -13 -19 -13 -26 0
-6 -9 -18 -20 -26 -11 -8 -20 -23 -20 -33 0 -10 -6 -25 -12 -32 -30 -33 -38
-45 -38 -55 0 -5 -4 -10 -9 -10 -5 0 -11 -10 -13 -22 -2 -13 -9 -22 -15 -21
-7 2 -10 -4 -7 -12 4 -9 0 -15 -10 -15 -10 0 -16 -8 -16 -21 0 -11 -6 -27 -12
-34 -24 -27 -33 -40 -45 -65 -9 -19 -12 -21 -12 -7 -1 10 -5 16 -10 13 -5 -3
-12 5 -15 19 -4 14 -11 25 -16 25 -6 0 -10 9 -10 20 0 12 -11 32 -25 46 -14
14 -25 29 -25 35 0 5 -9 19 -20 31 -11 12 -20 30 -20 40 0 10 -7 18 -15 18 -8
0 -15 9 -15 20 0 11 -4 20 -10 20 -5 0 -10 7 -10 15 0 8 -4 15 -10 15 -5 0
-10 6 -10 13 0 8 -9 24 -20 37 -11 13 -23 34 -26 47 -4 13 -10 23 -15 23 -5 0
-9 7 -9 15 0 9 -7 18 -15 21 -8 4 -15 12 -15 20 0 8 -4 14 -10 14 -5 0 -10 9
-10 19 0 10 -7 22 -16 25 -8 3 -13 10 -10 14 3 5 -6 20 -20 35 -13 14 -24 35
-24 47 0 11 -7 20 -15 20 -8 0 -15 7 -15 15 0 8 -4 15 -10 15 -5 0 -10 9 -10
20 0 11 -4 20 -10 20 -5 0 -10 6 -10 13 0 8 -11 27 -25 43 -14 16 -25 32 -25
37 0 4 -117 7 -260 7 l-260 0 2 -1047z"/>
<path d="M20807 9553 c-4 -3 -7 -471 -7 -1038 0 -864 2 -1034 14 -1044 9 -8
83 -11 247 -9 l234 3 3 1048 2 1047 -243 0 c-134 0 -247 -3 -250 -7z"/>
<path d="M24320 8510 l0 -1050 243 2 242 3 3 408 2 407 390 0 390 0 2 -407 3
-408 243 -3 242 -2 0 1050 0 1050 -245 0 -245 0 0 -400 0 -400 -390 0 -390 0
0 400 0 400 -245 0 -245 0 0 -1050z"/>
<path d="M19835 6690 c-3 -5 -17 -10 -31 -10 -13 0 -24 -4 -24 -10 0 -5 -7
-10 -16 -10 -16 0 -64 -47 -64 -62 0 -5 -7 -8 -15 -8 -9 0 -15 -9 -15 -25 0
-14 -4 -25 -10 -25 -5 0 -10 -15 -10 -34 0 -19 -4 -38 -10 -41 -5 -3 -10 -35
-10 -71 l0 -64 -60 0 -60 0 0 -105 0 -105 60 0 60 0 0 -380 0 -380 125 0 125
0 0 380 0 380 120 0 120 0 0 105 0 105 -120 0 -120 0 0 45 c0 25 4 45 10 45 5
0 12 11 16 25 4 18 13 25 30 25 13 0 24 5 24 10 0 6 11 10 25 10 14 0 25 -4
25 -9 0 -5 27 -11 60 -13 47 -2 59 0 55 10 -3 8 -5 56 -5 108 0 93 0 94 -24
94 -14 0 -28 5 -31 10 -4 6 -53 10 -115 10 -62 0 -111 -4 -115 -10z"/>
<path d="M23540 6030 l0 -670 118 0 c78 0 122 4 130 12 9 9 12 96 12 330 0
190 4 318 9 318 5 0 13 10 17 22 9 29 29 48 49 48 9 0 14 4 11 9 -9 15 21 21
100 21 57 0 76 -4 80 -15 4 -8 10 -15 16 -15 11 0 38 -25 38 -35 0 -4 7 -21
15 -38 12 -26 15 -92 17 -342 l3 -310 128 -3 127 -3 0 366 c0 237 -4 365 -10
365 -5 0 -10 15 -10 34 0 21 -6 36 -15 40 -8 3 -15 15 -15 26 0 11 -4 20 -10
20 -5 0 -10 5 -10 10 0 14 -46 60 -60 60 -5 0 -10 4 -10 9 0 5 -9 11 -21 14
-12 3 -18 10 -14 16 4 7 -5 11 -24 11 -17 0 -31 5 -31 10 0 6 -47 10 -120 10
-73 0 -120 -4 -120 -10 0 -5 -9 -10 -21 -10 -11 0 -27 -6 -34 -12 -33 -30 -45
-38 -55 -38 -5 0 -10 -4 -10 -10 0 -5 -4 -10 -10 -10 -6 0 -10 76 -10 208 0
148 -3 211 -12 220 -8 8 -52 12 -130 12 l-118 0 0 -670z"/>
<path d="M26797 6693 c-4 -3 -7 -305 -7 -670 l0 -663 120 0 120 0 0 670 0 670
-113 0 c-63 0 -117 -3 -120 -7z"/>
<path d="M14180 6565 l0 -115 130 0 130 0 0 115 0 115 -130 0 -130 0 0 -115z"/>
<path d="M11092 5998 l3 -633 128 -3 127 -3 0 636 0 635 -130 0 -130 0 2 -632z"/>
<path d="M20500 6515 l0 -115 200 0 200 0 0 -520 0 -520 125 0 c121 0 125 1
130 23 3 12 4 246 3 520 l-3 497 193 0 192 0 0 115 0 115 -520 0 -520 0 0
-115z"/>
<path d="M13527 6583 c-4 -3 -7 -62 -7 -129 l0 -123 -57 -3 -58 -3 -3 -102 -3
-102 61 -3 61 -3 -1 -257 c0 -171 3 -258 10 -258 5 0 10 -22 10 -50 0 -38 4
-50 15 -50 8 0 15 -9 15 -20 0 -11 5 -20 10 -20 6 0 10 -6 10 -13 0 -7 14 -21
30 -31 17 -9 28 -22 25 -27 -4 -5 8 -9 25 -9 18 0 29 -4 25 -10 -4 -6 38 -10
119 -10 77 0 126 4 126 10 0 6 13 10 29 10 16 0 31 6 35 15 3 8 12 15 21 15
12 0 15 17 15 105 l0 105 -30 0 c-16 0 -30 -4 -30 -10 0 -6 -37 -10 -90 -10
-83 0 -90 1 -90 20 0 11 -4 20 -10 20 -6 0 -10 87 -10 240 l0 240 130 0 130 0
0 105 0 105 -130 0 -130 0 0 130 0 130 -123 0 c-68 0 -127 -3 -130 -7z"/>
<path d="M14700 6460 l0 -130 -60 0 -60 0 0 -105 0 -105 60 0 60 0 0 -310 c0
-200 4 -310 10 -310 6 0 10 -9 10 -20 0 -11 7 -20 15 -20 8 0 15 -5 15 -11 0
-14 25 -39 39 -39 6 0 11 -7 11 -15 0 -9 9 -15 25 -15 14 0 25 -4 25 -10 0 -6
48 -10 125 -10 77 0 125 4 125 10 0 6 11 10 25 10 14 0 34 9 45 20 17 17 20
33 20 120 0 93 -1 100 -20 100 -11 0 -20 -4 -20 -10 0 -6 -38 -10 -95 -10
l-95 0 0 31 c0 16 -4 28 -9 25 -16 -10 -21 54 -21 260 l0 204 130 0 130 0 0
105 0 105 -130 0 -130 0 0 130 0 130 -115 0 -115 0 0 -130z"/>
<path d="M16440 6460 l0 -130 -55 0 -55 0 0 -105 0 -105 55 0 55 0 0 -305 c0
-262 2 -306 15 -311 8 -4 15 -15 15 -25 0 -10 5 -19 10 -19 6 0 10 -7 10 -15
0 -8 5 -15 11 -15 7 0 22 -11 35 -25 13 -14 32 -25 44 -25 11 0 20 -4 20 -10
0 -6 48 -10 125 -10 77 0 125 4 125 10 0 6 14 10 30 10 20 0 30 5 30 15 0 8 7
15 15 15 12 0 15 18 15 105 l0 105 -25 0 c-14 0 -25 -4 -25 -10 0 -6 -37 -10
-90 -10 l-90 0 -7 30 c-3 17 -10 33 -14 36 -5 3 -9 106 -9 230 l0 224 130 0
130 0 0 105 0 105 -130 0 -130 0 0 130 0 130 -120 0 -120 0 0 -130z"/>
<path d="M11990 6340 c0 -5 -14 -10 -31 -10 -16 0 -28 -4 -24 -9 3 -5 -4 -12
-15 -16 -11 -3 -20 -11 -20 -16 0 -5 -7 -9 -15 -9 -8 0 -15 -4 -15 -10 0 -5
-4 -10 -9 -10 -6 0 -11 15 -13 33 l-3 32 -127 3 -128 3 0 -486 0 -485 114 0
c63 0 121 3 130 6 14 5 16 44 16 330 0 209 4 324 10 324 6 0 10 8 10 18 0 20
33 52 55 52 8 0 14 6 13 13 -2 8 18 13 67 15 77 3 119 -4 110 -18 -3 -6 1 -10
10 -10 21 0 36 -16 58 -63 15 -33 17 -74 17 -352 l0 -315 130 0 130 0 0 364
c0 261 -3 365 -11 368 -6 2 -11 16 -11 32 0 15 -7 30 -14 33 -8 3 -14 16 -14
29 0 13 -4 24 -10 24 -5 0 -10 5 -10 10 0 14 -46 60 -60 60 -5 0 -10 4 -10 9
0 5 -9 11 -21 14 -12 3 -18 10 -14 16 4 7 -5 11 -24 11 -17 0 -31 5 -31 10 0
6 -47 10 -120 10 -73 0 -120 -4 -120 -10z"/>
<path d="M12840 6340 c0 -5 -13 -10 -29 -10 -16 0 -31 -6 -35 -15 -3 -8 -12
-15 -21 -15 -8 0 -15 -4 -15 -10 0 -5 -9 -10 -21 -10 -11 0 -17 -4 -14 -10 3
-5 -1 -10 -9 -10 -9 0 -18 -10 -21 -23 -4 -13 -17 -31 -31 -41 -19 -15 -24
-28 -24 -63 0 -27 -4 -42 -10 -38 -6 4 -10 -13 -10 -44 0 -28 5 -51 10 -51 6
0 10 -16 10 -35 0 -24 5 -35 15 -35 8 0 15 -6 15 -14 0 -19 66 -86 85 -86 8 0
15 -4 15 -10 0 -5 9 -10 19 -10 11 0 23 -4 26 -10 3 -5 15 -10 25 -10 10 0 25
-7 34 -15 8 -8 28 -15 45 -15 16 0 33 -4 36 -10 3 -5 20 -10 36 -10 17 0 32
-6 35 -15 4 -9 19 -15 36 -15 17 0 27 -4 23 -10 -3 -5 3 -10 14 -10 18 0 21
-6 21 -45 0 -33 -4 -45 -15 -45 -8 0 -14 -6 -12 -12 1 -10 -25 -13 -108 -13
-83 0 -109 3 -107 13 1 8 -10 12 -34 12 -21 0 -33 4 -29 10 4 6 -5 10 -19 10
-14 0 -26 4 -26 9 0 5 -9 11 -21 14 -12 3 -18 10 -14 16 4 7 -6 11 -28 11 -29
0 -36 -4 -41 -25 -4 -14 -11 -25 -17 -25 -6 0 -7 -4 -4 -10 3 -5 -1 -10 -9
-10 -10 0 -16 -9 -16 -24 0 -13 -4 -26 -9 -28 -5 -1 -13 -16 -16 -31 -6 -23
-4 -29 14 -34 11 -3 21 -9 21 -14 0 -5 7 -9 15 -9 9 0 18 -7 21 -15 4 -8 17
-15 30 -15 13 0 24 -4 24 -10 0 -5 11 -10 25 -10 16 0 25 -6 25 -15 0 -11 11
-15 41 -15 24 0 38 -4 34 -10 -4 -6 47 -10 144 -10 94 0 151 4 151 10 0 6 13
10 29 10 16 0 31 6 35 15 3 8 12 15 21 15 8 0 15 5 15 10 0 6 9 10 21 10 11 0
18 4 15 8 -3 5 3 16 12 25 27 25 42 45 42 56 0 5 5 11 11 13 17 6 18 240 1
246 -6 2 -12 9 -12 15 0 7 -11 21 -25 31 -13 10 -22 22 -19 27 3 5 -2 9 -10 9
-9 0 -16 3 -16 8 0 8 -49 32 -67 32 -7 0 -13 7 -13 15 0 10 -10 15 -30 15 -16
0 -30 5 -30 10 0 6 -16 10 -35 10 -19 0 -35 5 -35 10 0 6 -14 10 -30 10 -18 0
-33 6 -36 15 -4 9 -19 15 -35 15 -16 0 -29 5 -29 10 0 6 -8 10 -18 10 -20 0
-49 63 -32 68 5 2 10 8 10 14 0 28 31 38 114 38 51 0 86 -4 86 -10 0 -5 9 -10
19 -10 28 0 52 -11 45 -21 -3 -5 6 -9 20 -9 14 0 26 -4 26 -10 0 -15 60 -12
76 4 8 8 14 21 14 29 0 8 11 25 25 38 33 32 37 109 5 109 -11 0 -20 5 -20 10
0 6 -9 10 -20 10 -11 0 -20 4 -20 9 0 5 -14 11 -31 15 -17 3 -28 10 -24 16 4
6 -11 10 -39 10 -25 0 -46 5 -46 10 0 6 -48 10 -125 10 -77 0 -125 -4 -125
-10z"/>
<path d="M17370 6340 c0 -5 -16 -10 -36 -10 -19 0 -33 -4 -30 -9 3 -4 -12 -17
-34 -27 -22 -10 -40 -22 -40 -26 0 -5 -7 -8 -15 -8 -8 0 -15 -7 -15 -15 0 -8
-3 -15 -7 -15 -13 0 -63 -46 -63 -58 0 -5 -7 -12 -15 -16 -8 -3 -15 -15 -15
-26 0 -11 -4 -20 -10 -20 -5 0 -10 -9 -10 -20 0 -11 -4 -20 -10 -20 -5 0 -10
-15 -10 -34 0 -21 -6 -36 -15 -40 -22 -8 -21 -262 0 -290 8 -11 15 -30 15 -43
0 -13 5 -23 10 -23 6 0 10 -9 10 -20 0 -11 5 -20 10 -20 6 0 10 -11 10 -25 0
-14 5 -25 11 -25 11 0 39 -25 39 -35 0 -8 26 -35 34 -35 12 0 45 -34 40 -42
-3 -4 4 -8 15 -8 12 0 21 -4 21 -10 0 -5 9 -10 20 -10 11 0 23 -7 26 -15 4 -8
18 -15 34 -15 16 0 30 -4 32 -9 3 -9 127 -16 246 -13 46 1 71 6 67 12 -4 6 8
10 29 10 25 0 36 4 36 15 0 8 9 15 20 15 11 0 20 5 20 10 0 6 9 10 20 10 11 0
20 6 20 13 0 8 11 20 25 27 14 7 25 17 25 22 0 4 7 8 15 8 8 0 15 7 15 15 0 8
5 15 10 15 22 0 9 38 -15 44 -14 4 -23 11 -20 16 3 6 -1 10 -9 10 -9 0 -16 5
-16 10 0 6 -5 10 -11 10 -14 0 -39 25 -39 39 0 21 -51 11 -74 -14 -13 -14 -28
-25 -35 -25 -6 0 -11 -4 -11 -10 0 -5 -11 -10 -25 -10 -16 0 -25 -6 -25 -15 0
-13 -16 -15 -107 -13 -80 2 -107 6 -105 16 1 6 -7 12 -18 12 -23 0 -82 49 -74
61 3 5 -2 9 -10 9 -9 0 -16 9 -16 20 0 11 -4 20 -10 20 -5 0 -10 11 -10 25 l0
25 338 2 337 3 -2 70 c-2 104 -14 205 -24 205 -5 0 -9 11 -9 25 0 14 -4 25
-10 25 -5 0 -12 11 -16 25 -3 14 -10 25 -15 25 -5 0 -9 8 -9 18 0 9 -16 31
-35 47 -19 17 -35 36 -35 43 0 6 -7 12 -15 12 -8 0 -15 3 -15 8 0 4 -18 15
-40 25 -23 9 -38 22 -35 27 4 6 -9 10 -29 10 -20 0 -36 5 -36 10 0 6 -52 10
-135 10 -83 0 -135 -4 -135 -10z m229 -216 c17 -8 29 -20 26 -25 -4 -5 -1 -9
5 -9 18 0 40 -27 40 -49 0 -12 5 -21 10 -21 6 0 10 -10 10 -21 0 -12 8 -28 18
-35 14 -11 -17 -13 -200 -14 l-218 0 0 25 c0 14 5 25 10 25 6 0 10 9 10 20 0
11 4 20 8 20 5 0 15 11 22 25 7 14 17 25 21 25 4 0 20 11 35 25 24 22 36 25
99 25 45 0 84 -6 104 -16z"/>
<path d="M18790 6340 c0 -5 -18 -10 -40 -10 -26 0 -39 -4 -37 -12 1 -7 -8 -14
-20 -16 -13 -2 -23 -8 -23 -13 0 -5 -9 -9 -20 -9 -11 0 -20 -4 -20 -10 0 -5
-5 -10 -10 -10 -6 0 -26 -16 -44 -35 -19 -19 -39 -35 -44 -35 -5 0 -13 -11
-16 -25 -4 -14 -11 -25 -17 -25 -6 0 -7 -5 -4 -10 3 -6 -1 -13 -9 -16 -9 -3
-16 -15 -16 -25 0 -10 -4 -19 -10 -19 -5 0 -10 -9 -10 -19 0 -28 -11 -52 -21
-45 -5 3 -9 -63 -9 -155 0 -136 2 -161 15 -161 9 0 15 -9 15 -25 0 -14 5 -25
10 -25 6 0 10 -9 10 -20 0 -11 5 -20 10 -20 6 0 10 -7 10 -15 0 -8 11 -25 25
-39 14 -14 25 -30 25 -36 0 -5 5 -10 11 -10 6 0 26 -16 45 -35 18 -19 40 -35
49 -35 8 0 15 -4 15 -10 0 -5 9 -10 20 -10 11 0 23 -7 26 -15 4 -9 19 -15 36
-15 17 0 27 -4 23 -10 -4 -6 21 -11 67 -12 125 -2 243 4 246 13 2 5 19 9 38 9
22 0 33 4 31 12 -1 7 8 14 21 16 12 2 22 8 22 13 0 5 9 9 21 9 11 0 17 5 14
10 -3 6 0 10 8 10 18 0 107 88 107 106 0 8 7 14 16 14 8 0 12 5 9 10 -3 6 1
13 9 16 9 3 16 15 16 25 0 10 5 19 10 19 6 0 10 16 10 35 0 22 6 38 15 41 12
5 15 30 15 140 0 110 -3 136 -15 140 -9 4 -15 19 -15 40 0 19 -4 34 -10 34 -5
0 -10 7 -10 15 0 9 -11 26 -25 39 -14 13 -25 28 -25 34 0 14 -67 82 -81 82 -6
0 -7 5 -4 10 3 6 -3 10 -14 10 -12 0 -21 3 -21 8 0 4 -18 15 -40 25 -22 9 -40
21 -40 27 0 5 -16 10 -35 10 -19 0 -35 5 -35 10 0 6 -53 10 -140 10 -87 0
-140 -4 -140 -10z m175 -210 c3 -5 20 -10 36 -10 17 0 32 -6 35 -15 4 -8 15
-15 25 -15 10 0 19 -4 19 -10 0 -5 7 -10 15 -10 8 0 15 -7 15 -15 0 -8 4 -15
8 -15 13 0 40 -54 34 -69 -2 -8 0 -11 6 -7 5 3 13 -1 16 -10 10 -25 7 -214 -3
-214 -5 0 -13 -10 -17 -22 -4 -13 -16 -31 -27 -40 -11 -10 -16 -18 -12 -18 5
0 -1 -9 -13 -20 -12 -11 -26 -20 -32 -20 -5 0 -10 -4 -10 -10 0 -5 -14 -10
-31 -10 -16 0 -28 -4 -25 -9 9 -13 -19 -21 -74 -21 -55 0 -83 8 -74 21 3 5 -9
9 -25 9 -17 0 -31 4 -31 9 0 5 -9 11 -20 14 -11 3 -28 19 -37 36 -10 17 -24
31 -32 31 -7 0 -11 6 -7 15 3 8 -1 21 -9 29 -8 8 -15 28 -15 45 0 17 -4 31
-10 31 -5 0 -10 20 -10 45 0 25 5 45 10 45 6 0 10 14 10 31 0 17 7 37 15 45 8
8 12 21 9 29 -4 10 0 15 12 15 9 0 15 3 11 6 -6 7 46 64 58 64 4 0 13 7 21 15
9 8 28 15 44 15 16 0 32 5 35 10 3 6 21 10 40 10 19 0 37 -4 40 -10z"/>
<path d="M21820 6340 c0 -5 -13 -10 -29 -10 -16 0 -31 -6 -35 -15 -3 -8 -12
-15 -21 -15 -8 0 -15 -4 -15 -10 0 -5 -9 -10 -20 -10 -11 0 -20 -4 -20 -10 0
-5 -7 -10 -15 -10 -8 0 -14 -4 -12 -8 1 -4 -19 -29 -45 -55 -27 -26 -48 -53
-48 -61 0 -8 -4 -18 -10 -21 -5 -3 -10 -15 -10 -26 0 -10 -7 -19 -15 -19 -10
0 -15 -11 -15 -35 0 -19 -4 -35 -10 -35 -6 0 -10 -53 -10 -139 0 -83 4 -142
10 -146 6 -3 10 -22 10 -41 0 -19 3 -34 8 -34 8 0 42 -56 42 -70 0 -15 130
-140 145 -140 8 0 15 -4 15 -10 0 -5 9 -10 20 -10 11 0 20 -7 20 -15 0 -10 10
-15 29 -15 16 0 31 -5 33 -11 2 -7 57 -11 158 -11 101 0 156 4 158 11 2 6 17
11 33 11 16 0 29 4 29 10 0 5 17 17 37 27 21 10 52 32 70 50 17 18 36 33 42
33 6 0 11 7 11 15 0 8 5 15 10 15 19 0 10 39 -10 45 -11 3 -20 11 -20 16 0 5
-5 9 -11 9 -6 0 -26 16 -45 35 -32 34 -84 49 -84 24 0 -14 -25 -39 -39 -39 -6
0 -11 -4 -11 -10 0 -5 -13 -10 -30 -10 -19 0 -29 -5 -27 -12 1 -10 -25 -14
-101 -16 -85 -2 -103 0 -108 13 -3 8 -15 15 -25 15 -10 0 -19 5 -19 10 0 6 -5
10 -11 10 -14 0 -39 25 -39 39 0 6 -4 11 -10 11 -5 0 -10 9 -10 19 0 11 -4 21
-9 23 -4 2 -12 13 -15 26 l-7 22 330 0 c181 0 336 3 345 6 12 5 16 21 16 75 0
39 -4 69 -10 69 -6 0 -10 26 -10 59 0 43 -4 60 -15 65 -8 3 -15 17 -15 31 0
14 -4 25 -10 25 -5 0 -10 11 -10 25 0 14 -4 25 -10 25 -5 0 -10 6 -10 14 0 20
-106 126 -125 126 -8 0 -15 5 -15 10 0 6 -7 10 -15 10 -9 0 -18 7 -21 15 -4 8
-19 15 -34 15 -16 0 -32 5 -35 10 -4 6 -62 10 -141 10 -83 0 -134 -4 -134 -10z
m220 -210 c0 -5 6 -10 13 -10 17 -1 70 -57 73 -78 2 -9 8 -18 13 -20 6 -2 11
-15 11 -28 0 -13 5 -24 10 -24 6 0 10 -4 10 -10 0 -6 -78 -10 -214 -10 l-213
0 5 25 c2 14 8 25 13 25 5 0 9 9 9 20 0 11 5 20 10 20 6 0 10 5 10 10 0 13 47
61 74 77 26 14 176 17 176 3z"/>
<path d="M22880 6340 c0 -5 -16 -10 -35 -10 -19 0 -35 -5 -35 -10 0 -6 -18
-18 -40 -27 -22 -10 -40 -21 -40 -25 0 -5 -9 -8 -20 -8 -11 0 -19 -4 -17 -8 3
-10 -49 -62 -63 -62 -5 0 -10 -7 -10 -15 0 -8 -4 -15 -10 -15 -5 0 -10 -9 -10
-20 0 -11 -7 -23 -15 -26 -8 -4 -15 -15 -15 -25 0 -10 -4 -19 -10 -19 -5 0
-10 -11 -10 -24 0 -13 -5 -26 -12 -28 -10 -4 -13 -21 -17 -116 -1 -13 -5 -20
-11 -17 -6 4 -10 -8 -10 -30 0 -22 4 -34 10 -30 10 6 13 -20 10 -88 -1 -26 3
-39 14 -43 10 -4 16 -18 16 -40 0 -19 5 -34 10 -34 6 0 10 -5 10 -10 0 -11 10
-25 48 -65 12 -13 22 -27 22 -30 0 -9 27 -35 36 -35 4 0 16 -10 28 -23 11 -12
38 -30 59 -40 20 -10 37 -22 37 -27 0 -6 13 -10 29 -10 16 0 31 -4 33 -9 3 -9
114 -15 241 -13 49 1 76 6 72 12 -4 6 6 10 23 10 17 0 32 6 36 15 3 8 15 15
26 15 11 0 20 5 20 10 0 6 5 10 11 10 6 0 16 6 23 13 34 32 67 57 76 57 17 0
12 67 -6 74 -8 3 -12 10 -9 16 3 5 1 10 -5 10 -7 0 -31 20 -56 45 -40 42 -74
58 -74 35 0 -5 -7 -10 -16 -10 -8 0 -13 -4 -10 -8 7 -11 -30 -42 -49 -42 -8 0
-15 -4 -15 -10 0 -5 -13 -10 -30 -10 -19 0 -29 -5 -27 -12 1 -10 -17 -13 -68
-13 -51 0 -69 3 -67 13 1 7 -9 12 -28 12 -16 0 -30 5 -30 10 0 6 -7 10 -15 10
-18 0 -56 31 -50 41 3 4 -2 12 -10 19 -8 7 -15 18 -15 25 0 8 -5 15 -11 17
-22 7 -49 162 -30 181 6 6 11 24 11 39 0 15 5 28 11 28 5 0 7 5 4 10 -3 6 -1
10 4 10 6 0 11 5 11 10 0 6 4 16 10 23 34 43 59 67 68 67 5 0 12 7 16 15 3 9
18 15 35 15 16 0 33 5 36 10 3 6 21 10 40 10 19 0 37 -4 40 -10 3 -5 17 -10
30 -10 32 0 56 -10 49 -21 -3 -5 4 -9 15 -9 12 0 21 -4 21 -10 0 -5 6 -10 14
-10 7 0 22 -11 32 -25 10 -14 27 -25 37 -25 18 0 47 22 47 35 0 11 28 35 40
35 6 0 9 4 6 8 -6 9 29 42 44 42 6 0 10 16 10 35 0 19 -4 35 -10 35 -15 0 -50
33 -44 42 3 4 -4 8 -15 8 -12 0 -21 5 -21 10 0 6 -7 10 -15 10 -8 0 -15 5 -15
10 0 6 -9 10 -20 10 -11 0 -23 7 -26 15 -4 9 -19 15 -40 15 -19 0 -34 5 -34
10 0 6 -53 10 -140 10 -87 0 -140 -4 -140 -10z"/>
<path d="M25000 6340 c0 -5 -14 -10 -31 -10 -16 0 -28 -4 -24 -9 3 -5 -4 -12
-15 -16 -11 -3 -20 -11 -20 -16 0 -5 -5 -9 -11 -9 -14 0 -39 -25 -39 -39 0 -6
-4 -11 -10 -11 -5 0 -10 23 -10 50 l0 50 -120 0 -120 0 0 -485 0 -486 118 3
117 3 3 283 c1 182 6 281 12 277 6 -4 10 14 10 44 0 28 5 51 10 51 6 0 10 11
10 25 0 16 6 25 15 25 8 0 15 5 15 10 0 6 6 10 14 10 8 0 17 7 20 15 5 13 22
15 93 13 64 -2 87 -6 86 -15 -2 -7 5 -13 15 -13 17 0 52 -50 52 -76 0 -8 4
-14 10 -14 6 0 11 -117 12 -317 l3 -318 125 0 125 0 3 353 c1 233 -1 352 -8
352 -5 0 -10 20 -10 45 0 33 -4 45 -15 45 -9 0 -15 9 -15 23 0 12 -9 29 -20
37 -11 8 -20 20 -20 27 0 7 -5 13 -11 13 -7 0 -19 8 -28 18 -9 10 -24 21 -34
25 -10 4 -15 11 -12 17 4 6 -6 10 -24 10 -17 0 -31 5 -31 10 0 6 -47 10 -120
10 -73 0 -120 -4 -120 -10z"/>
<path d="M25970 6340 c0 -5 -16 -10 -36 -10 -21 0 -33 -4 -29 -10 3 -6 -2 -13
-12 -16 -44 -15 -73 -29 -73 -36 0 -5 -9 -8 -21 -8 -11 0 -18 -4 -15 -8 5 -8
-28 -42 -40 -42 -10 0 -34 -28 -34 -39 0 -6 -3 -11 -7 -11 -11 0 -43 -58 -43
-76 0 -8 -4 -14 -10 -14 -5 0 -10 -11 -10 -25 0 -16 -6 -25 -15 -25 -11 0 -15
-12 -15 -49 0 -28 -4 -53 -10 -56 -5 -3 -10 -33 -10 -66 0 -33 4 -59 10 -59 6
0 10 -25 10 -56 0 -30 4 -53 9 -50 10 7 21 -17 21 -45 0 -10 5 -19 10 -19 6 0
10 -7 10 -15 0 -8 5 -15 12 -15 6 0 8 -3 5 -6 -3 -4 7 -19 23 -34 17 -16 30
-31 30 -35 0 -9 27 -35 36 -35 4 0 17 -11 30 -25 13 -14 30 -25 39 -25 8 0 15
-4 15 -10 0 -5 9 -10 20 -10 11 0 20 -7 20 -15 0 -10 10 -15 29 -15 16 0 31
-5 33 -11 2 -7 57 -11 158 -11 101 0 156 4 158 11 2 6 17 11 33 11 16 0 29 4
29 10 0 5 17 17 37 27 21 9 45 24 54 33 33 31 60 50 70 50 5 0 7 5 4 10 -3 6
-1 10 4 10 6 0 11 5 11 10 0 6 11 22 25 36 14 14 25 31 25 39 0 8 5 15 10 15
6 0 10 11 10 25 0 14 4 25 9 25 6 0 11 15 13 33 2 19 8 31 16 30 20 -5 17 233
-3 241 -9 3 -15 18 -15 36 0 16 -4 30 -10 30 -5 0 -10 11 -10 25 0 14 -4 25
-10 25 -5 0 -10 7 -10 15 0 8 -11 25 -25 39 -14 14 -25 28 -25 31 0 10 -80 85
-90 85 -6 0 -10 5 -10 10 0 6 -9 10 -20 10 -11 0 -20 4 -20 9 0 5 -11 12 -25
15 -14 4 -23 11 -20 16 4 6 -9 10 -29 10 -20 0 -36 5 -36 10 0 6 -55 10 -145
10 -90 0 -145 -4 -145 -10z m185 -210 c3 -5 20 -10 36 -10 17 0 32 -6 35 -15
4 -8 13 -15 21 -15 19 0 73 -54 73 -73 0 -8 6 -17 14 -20 9 -4 12 -14 9 -26
-4 -15 -1 -21 11 -21 14 0 16 -14 16 -89 0 -93 -6 -125 -21 -115 -5 3 -9 -8
-9 -23 0 -17 -8 -34 -20 -43 -11 -8 -20 -18 -20 -23 0 -12 -27 -37 -39 -37 -6
0 -11 -4 -11 -10 0 -5 -16 -10 -35 -10 -23 0 -34 -4 -32 -12 1 -10 -17 -13
-68 -13 -51 0 -69 3 -67 13 1 8 -10 12 -33 12 -19 0 -35 5 -35 10 0 6 -4 10
-10 10 -5 0 -19 9 -30 20 -11 11 -17 20 -13 20 3 0 -4 9 -16 19 -13 11 -20 25
-16 31 3 6 1 9 -7 8 -8 -2 -14 9 -16 30 -2 17 -7 32 -13 32 -5 0 -9 34 -9 75
0 41 4 75 9 75 6 0 11 15 13 33 2 20 8 31 16 29 8 -1 11 2 7 8 -3 5 -1 15 4
22 38 46 60 68 70 68 7 0 19 7 27 15 9 8 26 15 39 15 13 0 27 5 30 10 3 6 24
10 45 10 21 0 42 -4 45 -10z"/>
<path d="M27560 6340 c0 -5 -16 -10 -36 -10 -20 0 -33 -4 -29 -10 3 -5 -6 -12
-20 -16 -14 -3 -25 -10 -25 -15 0 -5 -9 -9 -20 -9 -11 0 -20 -4 -20 -10 0 -5
-7 -10 -15 -10 -8 0 -15 -7 -15 -15 0 -8 -3 -15 -7 -15 -12 0 -63 -46 -63 -56
0 -5 -11 -18 -25 -28 -14 -10 -25 -27 -25 -37 0 -11 -4 -19 -10 -19 -5 0 -10
-11 -10 -24 0 -13 -4 -26 -10 -28 -5 -1 -11 -16 -12 -32 -1 -15 -8 -31 -15
-33 -10 -4 -13 -37 -13 -125 0 -70 4 -117 9 -114 5 4 12 -8 16 -26 11 -56 29
-103 43 -111 7 -5 10 -12 7 -18 -4 -5 1 -9 9 -9 9 0 16 -6 16 -14 0 -7 7 -19
15 -26 8 -7 12 -16 9 -21 -3 -5 0 -9 5 -9 10 0 43 -25 77 -57 7 -7 20 -13 28
-13 9 0 16 -4 16 -9 0 -5 10 -11 23 -13 12 -2 21 -9 20 -16 -2 -8 10 -12 33
-12 21 0 33 -4 29 -10 -4 -6 21 -11 67 -12 119 -3 243 4 246 13 2 5 16 9 32 9
16 0 30 7 34 15 3 8 15 15 26 15 11 0 20 5 20 10 0 6 7 10 15 10 9 0 31 16 49
35 19 19 39 35 45 35 6 0 10 4 8 8 -1 4 10 20 26 35 15 16 27 35 27 44 0 9 3
13 7 10 8 -9 33 47 33 73 0 10 7 20 15 24 10 4 15 20 15 51 0 25 5 45 10 45 6
0 10 28 10 65 0 37 -4 65 -10 65 -5 0 -10 23 -10 50 0 38 -4 50 -15 50 -9 0
-15 9 -15 24 0 14 -4 28 -10 31 -5 3 -10 13 -10 21 0 9 -6 22 -12 29 -30 33
-38 45 -38 55 0 5 -7 10 -16 10 -8 0 -12 5 -9 10 3 6 1 10 -4 10 -16 0 -51 32
-45 42 3 4 -4 8 -15 8 -12 0 -21 3 -21 8 0 4 -18 15 -40 25 -22 9 -40 21 -40
27 0 5 -16 10 -35 10 -19 0 -35 5 -35 10 0 6 -55 10 -145 10 -90 0 -145 -4
-145 -10z m185 -210 c3 -5 20 -10 36 -10 17 0 32 -6 35 -15 4 -8 13 -15 21
-15 14 0 38 -22 72 -66 5 -6 12 -20 15 -32 4 -12 11 -22 16 -22 10 0 20 -49
27 -127 3 -42 1 -63 -6 -63 -6 0 -11 -13 -11 -29 0 -16 -7 -34 -15 -41 -8 -7
-15 -19 -15 -26 0 -8 -4 -14 -10 -14 -5 0 -10 -6 -10 -14 0 -8 -13 -20 -30
-28 -16 -7 -30 -16 -30 -20 0 -5 -13 -8 -29 -8 -17 0 -31 -6 -35 -15 -5 -13
-20 -15 -73 -13 -48 2 -67 7 -65 16 1 7 -9 12 -28 12 -16 0 -30 5 -30 10 0 6
-7 10 -16 10 -18 0 -44 23 -44 39 0 6 -4 11 -10 11 -5 0 -10 6 -10 14 0 8 -7
16 -15 20 -8 3 -15 17 -15 31 0 14 -4 25 -10 25 -6 0 -10 38 -10 95 0 57 4 95
10 95 6 0 10 11 10 25 0 13 11 35 25 49 14 14 25 28 25 31 0 12 29 35 43 35 8
0 17 7 21 15 3 9 18 15 40 15 19 0 38 5 41 10 3 6 21 10 40 10 19 0 37 -4 40
-10z"/>
<path d="M28630 6340 c0 -5 -16 -10 -36 -10 -20 0 -33 -4 -29 -10 3 -5 -12
-18 -35 -27 -22 -10 -40 -21 -40 -25 0 -5 -7 -8 -15 -8 -8 0 -14 -4 -12 -8 1
-5 -13 -23 -30 -39 -18 -17 -33 -36 -33 -42 0 -6 -7 -11 -15 -11 -9 0 -15 -9
-15 -24 0 -13 -4 -26 -9 -28 -6 -1 -12 -16 -14 -33 -2 -16 -10 -29 -16 -27 -8
1 -11 -39 -11 -139 0 -111 3 -144 15 -155 8 -9 15 -26 15 -40 0 -13 5 -24 10
-24 6 0 10 -11 10 -25 0 -14 5 -25 11 -25 15 0 35 -22 43 -48 4 -12 11 -22 17
-22 9 0 37 -21 71 -52 10 -10 25 -18 33 -18 8 0 15 -4 15 -10 0 -5 10 -10 23
-10 13 0 28 -5 35 -12 8 -8 53 -12 137 -12 84 0 129 4 137 12 7 7 22 12 35 12
13 0 23 5 23 10 0 6 7 10 15 10 8 0 23 8 33 18 48 45 89 70 62 38 -6 -8 -11
-32 -10 -53 3 -54 1 -65 -9 -59 -5 3 -11 -7 -14 -23 -8 -37 -48 -81 -76 -81
-11 0 -20 -6 -18 -12 1 -9 -14 -14 -43 -16 -25 -2 -49 -7 -54 -13 -13 -12 -93
-12 -101 1 -3 6 -29 10 -56 10 -35 0 -51 4 -55 15 -4 9 -19 15 -35 15 -16 0
-29 5 -29 10 0 6 -11 10 -24 10 -13 0 -26 4 -28 10 -1 5 -18 12 -35 16 -26 5
-33 3 -33 -10 0 -9 -4 -16 -10 -16 -5 0 -10 -9 -10 -21 0 -11 -6 -27 -12 -34
-33 -37 -38 -46 -38 -70 0 -30 32 -65 60 -65 11 0 20 -4 20 -10 0 -5 9 -10 20
-10 11 0 28 -4 38 -9 9 -6 30 -12 45 -16 15 -3 25 -10 22 -15 -4 -6 21 -10 64
-10 41 0 71 -4 71 -10 0 -6 37 -10 90 -10 53 0 90 4 90 10 0 6 25 10 56 10 36
0 61 5 70 15 9 8 24 15 34 15 10 0 22 5 25 10 3 6 15 10 26 10 10 0 19 5 19
10 0 6 5 10 11 10 12 0 89 73 89 85 0 10 27 35 39 35 6 0 11 11 11 25 0 14 5
25 10 25 6 0 10 20 10 45 0 25 5 45 10 45 7 0 10 157 10 450 l0 451 -127 -3
-128 -3 -3 -32 c-2 -21 -9 -33 -18 -33 -8 0 -14 5 -14 10 0 6 -7 10 -15 10 -8
0 -15 5 -15 10 0 6 -7 10 -15 10 -9 0 -18 7 -21 15 -4 9 -19 15 -35 15 -16 0
-29 5 -29 10 0 6 -50 10 -130 10 -80 0 -130 -4 -130 -10z m265 -210 c3 -5 15
-10 26 -10 11 0 22 -7 25 -15 4 -8 13 -15 21 -15 17 0 43 -24 43 -39 0 -6 5
-11 10 -11 6 0 10 -9 10 -19 0 -11 5 -21 11 -23 16 -5 18 -188 2 -188 -7 0
-13 -9 -13 -20 0 -27 -73 -100 -99 -100 -12 0 -21 -4 -21 -10 0 -6 -37 -10
-90 -10 -53 0 -90 4 -90 10 0 6 -10 10 -22 10 -24 1 -58 21 -58 35 0 4 -10 16
-22 27 -12 10 -23 26 -24 36 -2 9 -8 18 -13 20 -7 2 -11 40 -11 97 0 75 3 94
16 99 9 3 14 12 12 18 -5 14 44 68 60 68 6 0 12 4 14 8 2 5 17 16 33 24 34 18
170 24 180 8z"/>
<path d="M29430 6306 c0 -31 5 -46 16 -50 8 -3 13 -10 10 -14 -3 -5 2 -21 10
-36 7 -16 14 -37 14 -47 0 -11 5 -19 10 -19 6 0 10 -9 10 -21 0 -11 7 -27 15
-35 8 -9 15 -26 15 -40 0 -13 5 -24 10 -24 6 0 10 -11 10 -25 0 -14 5 -25 10
-25 6 0 10 -14 10 -31 0 -18 4 -28 10 -24 6 4 13 -7 16 -24 4 -17 10 -31 15
-31 5 0 9 -11 9 -25 0 -14 5 -25 10 -25 6 0 10 -16 10 -35 0 -24 5 -35 15 -35
9 0 15 -9 15 -25 0 -14 5 -25 10 -25 6 0 10 -14 10 -31 0 -17 4 -28 10 -24 10
6 11 5 15 -35 1 -13 8 -26 14 -28 6 -2 11 -12 11 -23 0 -10 5 -19 10 -19 6 0
10 -16 10 -35 0 -24 5 -35 15 -35 9 0 15 -9 15 -25 0 -14 5 -25 10 -25 6 0 10
-7 10 -15 0 -8 -4 -15 -10 -15 -5 0 -10 -9 -10 -20 0 -11 -7 -20 -15 -20 -8 0
-15 -7 -15 -15 0 -12 -14 -15 -64 -15 -70 0 -99 7 -90 21 3 5 -9 9 -25 9 -20
0 -31 -5 -31 -14 0 -17 -32 -80 -42 -84 -5 -2 -8 -12 -8 -23 0 -10 -4 -19 -10
-19 -5 0 -10 -13 -10 -30 0 -25 5 -31 40 -41 21 -7 37 -16 34 -20 -3 -5 15 -9
40 -9 25 0 46 -4 46 -10 0 -6 32 -10 75 -10 43 0 75 4 75 10 0 6 14 10 30 10
31 0 39 5 85 48 13 12 29 22 35 22 5 0 10 7 10 15 0 8 4 15 9 15 5 0 13 9 16
20 4 11 11 18 16 15 5 -4 9 3 9 14 0 12 3 21 8 21 8 0 32 70 32 94 0 8 7 16
15 20 9 3 15 18 15 36 0 16 5 30 10 30 6 0 10 11 10 24 0 13 5 26 11 28 5 2
12 17 13 33 2 16 9 31 15 33 6 2 11 15 11 28 0 13 5 24 10 24 6 0 10 16 10 35
0 24 5 35 15 35 11 0 15 11 15 36 0 21 4 33 10 29 6 -4 10 7 10 24 0 17 5 31
10 31 6 0 10 11 10 24 0 14 7 31 15 40 8 8 15 24 15 35 0 12 5 21 10 21 6 0
10 16 10 35 0 19 5 35 10 35 6 0 10 9 10 19 0 11 7 26 15 35 8 8 15 26 15 39
0 14 4 27 9 29 6 2 11 15 13 30 2 15 7 30 11 34 4 4 7 14 7 22 0 8 7 20 15 26
9 6 18 34 22 64 5 44 3 52 -11 52 -9 0 -16 -4 -16 -10 0 -6 -47 -10 -120 -10
l-120 0 0 -35 c0 -19 -4 -35 -10 -35 -5 0 -10 -11 -10 -24 0 -14 -7 -31 -15
-40 -8 -8 -15 -28 -15 -45 0 -17 -4 -31 -10 -31 -5 0 -10 -11 -10 -24 0 -14
-7 -32 -16 -41 -9 -8 -14 -24 -11 -35 3 -11 -1 -21 -9 -24 -8 -3 -14 -19 -14
-36 0 -16 -4 -30 -10 -30 -5 0 -10 -15 -10 -34 0 -21 -6 -36 -15 -40 -9 -3
-15 -19 -15 -41 0 -19 -4 -35 -10 -35 -5 0 -10 -15 -10 -34 0 -19 -4 -38 -10
-41 -5 -3 -10 1 -10 10 0 8 -7 18 -15 21 -8 4 -15 14 -15 23 0 19 -23 88 -33
97 -4 4 -7 20 -7 36 0 16 -6 31 -15 34 -8 4 -15 14 -15 24 0 11 -4 22 -10 25
-5 3 -10 19 -10 35 0 15 -5 30 -11 32 -6 2 -11 16 -11 32 0 15 -7 30 -14 33
-8 3 -14 16 -14 29 0 13 -4 24 -10 24 -5 0 -10 16 -10 35 0 24 -5 35 -15 35
-8 0 -15 8 -15 17 0 9 -5 32 -12 50 l-12 33 -113 0 c-69 0 -113 4 -113 10 0 6
-7 10 -15 10 -11 0 -15 -12 -15 -44z"/>
<path d="M14182 5848 l3 -483 128 -3 127 -3 0 486 0 485 -130 0 -130 0 2 -482z"/>
<path d="M15317 6323 c-12 -11 -8 -615 3 -608 6 4 10 -20 10 -65 0 -54 4 -72
15 -76 8 -4 15 -17 15 -30 0 -13 4 -24 10 -24 5 0 9 -3 9 -7 -3 -20 2 -33 14
-33 8 0 19 -10 26 -23 7 -13 26 -31 42 -41 16 -9 29 -21 29 -27 0 -5 11 -9 25
-9 14 0 25 -4 25 -10 0 -6 50 -10 130 -10 80 0 130 4 130 10 0 6 11 10 25 10
16 0 25 6 25 15 0 8 7 15 15 15 8 0 15 5 15 10 0 6 9 10 20 10 11 0 19 3 18 8
0 4 2 15 6 25 15 34 26 16 26 -43 l0 -60 120 0 c78 0 120 4 120 11 0 5 5 7 10
4 7 -4 9 152 8 472 l-3 478 -127 3 -128 3 0 -295 c0 -258 -2 -295 -16 -300
-10 -4 -13 -13 -9 -25 3 -11 -1 -25 -10 -34 -8 -9 -15 -18 -15 -22 0 -10 -28
-35 -39 -35 -6 0 -11 -4 -11 -10 0 -6 -38 -10 -95 -10 -57 0 -95 4 -95 10 0 6
-6 10 -13 10 -8 0 -20 11 -27 25 -7 14 -17 25 -22 25 -4 0 -8 16 -8 35 0 19
-4 35 -10 35 -6 0 -10 105 -10 295 l0 295 -123 0 c-68 0 -127 -3 -130 -7z"/>
</g>
</svg>
