<?xml version="1.0" standalone="no"?>
<!DOCTYPE svg PUBLIC "-//W3C//DTD SVG 20010904//EN" "http://www.w3.org/TR/2001/REC-SVG-20010904/DTD/svg10.dtd">
<svg version="1.0" xmlns="http://www.w3.org/2000/svg" width="158" height="48"  viewBox="0 0 799.000000 176.000000" preserveAspectRatio="xMidYMid meet">

  <g transform="translate(0.000000,176.000000) scale(0.100000,-0.100000)" fill="#000000" stroke="none">
    <path d="M71 1723 c-63 -50 -61 -18 -61 -843 0 -818 -1 -796 56 -845 26 -22
35 -23 318 -30 160 -3 565 -5 900 -3 l608 3 39 44 39 44 0 779 c0 853 3 813
-59 857 -29 21 -34 21 -918 21 l-888 0 -34 -27z m629 -478 l0 -95 -105 0 -105
0 0 95 0 95 105 0 105 0 0 -95z m250 -230 l0 -95 -105 0 -105 0 0 95 0 95 105
0 105 0 0 -95z m270 0 l0 -95 -105 0 -105 0 0 95 0 95 105 0 105 0 0 -95z
m270 0 l0 -95 -105 0 -105 0 0 95 0 95 105 0 105 0 0 -95z m-540 -250 l0 -95
-105 0 -105 0 0 95 0 95 105 0 105 0 0 -95z m0 -250 l0 -95 -105 0 -105 0 0
95 0 95 105 0 105 0 0 -95z" />
    <path d="M2615 1069 c-71 -9 -130 -43 -154 -86 -19 -37 -30 -27 -33 30 -3 50
-4 52 -33 52 l-30 0 -3 -326 c-2 -305 -1 -327 15 -331 10 -2 26 -2 36 0 15 3
17 21 17 206 0 227 9 273 64 329 30 31 62 45 151 64 33 7 41 13 43 34 4 32 -8
37 -73 28z" />
    <path d="M2797 1064 c-13 -13 -7 -45 18 -100 14 -30 25 -56 25 -59 0 -2 14
-34 31 -72 46 -103 52 -116 119 -276 62 -146 62 -147 46 -181 -9 -19 -16 -37
-16 -40 0 -3 -11 -28 -24 -55 -43 -90 -41 -126 5 -119 28 4 59 62 129 239 10
26 29 68 41 95 41 93 57 129 84 194 15 36 33 79 40 95 7 17 28 64 45 105 18
41 39 90 47 108 20 47 14 67 -22 67 -27 0 -32 -6 -62 -75 -18 -41 -44 -101
-58 -132 -14 -32 -25 -60 -25 -63 0 -2 -11 -29 -25 -59 -14 -30 -25 -57 -25
-60 0 -4 -9 -25 -19 -49 -11 -23 -27 -59 -35 -80 -9 -21 -19 -36 -24 -33 -5 3
-26 47 -46 98 -21 51 -44 107 -52 125 -8 17 -14 34 -14 37 0 3 -12 31 -26 63
-28 64 -35 80 -58 138 -31 76 -41 90 -67 93 -13 2 -28 0 -32 -4z" />
    <path d="M3640 1054 c-123 -61 -156 -197 -68 -283 18 -17 40 -31 49 -31 10 0
20 -4 23 -8 3 -5 31 -14 63 -21 147 -32 194 -55 213 -101 22 -53 -18 -115 -89
-139 -72 -24 -147 -13 -248 36 -58 28 -86 25 -81 -9 5 -33 92 -76 182 -90 111
-17 199 1 253 50 47 43 63 78 63 133 0 95 -60 136 -270 184 -97 23 -130 51
-130 111 0 55 36 99 93 115 59 16 151 4 205 -26 49 -27 77 -32 84 -12 8 21 -2
36 -50 69 -43 30 -52 32 -151 35 -85 3 -113 0 -141 -13z" />
    <path d="M4355 1063 c-24 -7 -98 -57 -125 -85 -32 -35 -68 -120 -79 -188 -16
-100 18 -232 76 -295 103 -113 346 -124 471 -23 6 6 12 21 12 34 0 20 -5 24
-30 24 -16 0 -30 -4 -30 -9 0 -17 -130 -61 -182 -61 -54 0 -139 35 -175 72
-34 35 -58 90 -67 151 l-5 37 243 0 c175 0 245 3 254 12 15 15 16 84 1 129
-33 103 -81 164 -151 193 -36 15 -166 20 -213 9z m143 -54 c26 -7 61 -22 78
-35 41 -30 74 -99 74 -152 l0 -42 -210 0 -210 0 0 25 c0 33 24 91 56 132 25
33 72 60 127 73 18 5 33 8 35 9 2 1 24 -4 50 -10z" />
    <path d="M5058 1061 c-123 -40 -192 -154 -191 -316 1 -192 83 -308 237 -336
50 -9 81 -10 125 -2 75 14 141 56 141 90 0 34 -23 38 -67 10 -21 -13 -61 -30
-90 -37 -44 -11 -59 -11 -95 0 -96 31 -136 71 -162 160 -44 146 6 309 108 356
70 33 225 16 251 -26 8 -13 52 -13 60 0 12 20 -6 46 -52 74 -43 27 -58 30
-143 33 -52 1 -107 -2 -122 -6z" />
    <path d="M5665 1061 c-43 -11 -128 -50 -136 -62 -12 -20 3 -49 25 -49 12 0 26
4 32 8 46 41 224 61 278 32 41 -21 66 -78 66 -150 l0 -60 -112 0 c-163 0 -267
-32 -303 -93 -26 -43 -27 -140 -2 -182 42 -70 151 -114 245 -100 61 9 100 30
139 74 l33 36 0 -40 c0 -22 4 -45 8 -51 14 -20 41 -23 58 -7 14 15 16 45 12
257 -3 217 -6 245 -24 286 -21 45 -68 89 -108 102 -29 8 -174 8 -211 -1z m265
-391 c0 -154 -159 -259 -285 -187 -70 40 -93 117 -52 177 30 45 77 58 220 59
l117 1 0 -50z" />
    <path d="M6236 1054 c-3 -9 -6 -155 -6 -324 0 -299 1 -310 20 -320 14 -8 26
-8 40 0 19 10 20 21 20 219 0 129 4 221 11 242 16 48 55 96 92 116 46 24 145
22 180 -3 53 -39 57 -61 57 -323 0 -240 0 -242 22 -250 12 -4 30 -6 39 -4 16
4 18 28 21 232 l3 228 30 48 c41 66 82 89 159 89 70 0 107 -19 134 -68 14 -26
17 -69 20 -278 l4 -248 33 0 c21 0 35 6 39 16 10 26 7 395 -5 463 -20 126 -83
181 -207 181 -89 0 -130 -17 -188 -77 l-41 -43 -18 32 c-31 58 -69 80 -145 86
-100 7 -131 -2 -189 -54 l-51 -46 0 29 c0 55 -10 73 -40 73 -16 0 -30 -7 -34
-16z" />
    <path d="M7385 1058 c-3 -7 -4 -211 -3 -453 l3 -440 30 0 30 0 3 165 c1 91 4
171 7 177 3 8 23 -6 52 -35 67 -66 155 -87 261 -60 82 20 136 67 179 158 22
47 26 70 27 155 2 155 -32 235 -128 304 -45 32 -55 35 -137 39 -80 4 -94 2
-142 -21 -29 -15 -63 -40 -75 -57 -13 -16 -27 -30 -32 -30 -5 0 -10 24 -12 53
-3 48 -5 52 -31 55 -16 2 -29 -2 -32 -10z m358 -59 c50 -14 106 -64 129 -116
43 -98 32 -253 -24 -330 -29 -40 -47 -54 -110 -85 -35 -16 -104 -9 -153 17
-75 40 -105 86 -124 186 -28 144 40 304 137 325 15 3 32 7 37 9 21 7 72 4 108
-6z" />
  </g>
</svg>